<svg version="1.1" xmlns="http://www.w3.org/2000/svg" xmlns:xlink="http://www.w3.org/1999/xlink" width="105.10956" height="110.46361" viewBox="0,0,105.10956,110.46361"><g transform="translate(-187.44523,-124.76819)"><g data-paper-data="{&quot;isPaintingLayer&quot;:true}" fill="#faff7f" fill-rule="nonzero" stroke="none" stroke-width="1" stroke-linecap="butt" stroke-linejoin="miter" stroke-miterlimit="10" stroke-dasharray="" stroke-dashoffset="0" style="mix-blend-mode: normal"><path d="M292.55478,182.67336c0,29.02771 -23.51974,52.55844 -52.55844,52.55844c-29.02405,0 -52.55111,-23.53073 -52.55111,-52.55844c0,-21.4602 12.87759,-39.88241 31.2998,-48.05092v14.56699c-11.05626,7.0398 -18.42954,19.39334 -18.42954,33.48026c0,21.91462 17.77357,39.68818 39.69552,39.68818c21.91462,0 39.68086,-17.77356 39.68086,-39.68818c0,-15.36222 -8.74753,-28.66125 -21.50785,-35.25029v-14.01363c20.03465,7.40993 34.36711,26.63103 34.37077,49.26759z"/><path d="M232.63771,181.84882v-49.45815c0,-4.20702 0.59367,-7.62248 6.34718,-7.62248c5.77549,0 6.36184,3.41546 6.36184,7.62248v49.45815c0,4.19603 -0.58635,7.60782 -6.36184,7.60782c-5.7535,0 -6.35084,-3.40813 -6.34718,-7.60782z"/></g></g></svg>