<?xml version="1.0" encoding="UTF-8" standalone="no"?>
<!-- Created with Inkscape (http://www.inkscape.org/) -->

<svg
   version="1.1"
   id="svg2"
   xml:space="preserve"
   width="223.86853"
   height="90.403999"
   viewBox="0 0 223.86853 90.403998"
   sodipodi:docname="ghdf_logo.svg"
   inkscape:version="1.1.2 (0a00cf5339, 2022-02-04)"
   xmlns:inkscape="http://www.inkscape.org/namespaces/inkscape"
   xmlns:sodipodi="http://sodipodi.sourceforge.net/DTD/sodipodi-0.dtd"
   xmlns="http://www.w3.org/2000/svg"
   xmlns:svg="http://www.w3.org/2000/svg"><defs
     id="defs6"><clipPath
       clipPathUnits="userSpaceOnUse"
       id="clipPath16"><path
         d="M 0,250 H 350 V 0 H 0 Z"
         id="path14" /></clipPath><radialGradient
       fx="0"
       fy="0"
       cx="0"
       cy="0"
       r="1"
       gradientUnits="userSpaceOnUse"
       gradientTransform="matrix(-75.739166,-2.4301336,-2.4301336,75.739166,156.19659,124.50088)"
       spreadMethod="pad"
       id="radialGradient116"><stop
         style="stop-opacity:1;stop-color:#f94646"
         offset="0"
         id="stop106" /><stop
         style="stop-opacity:1;stop-color:#f94646"
         offset="0.09925375"
         id="stop108" /><stop
         style="stop-opacity:1;stop-color:#faff7f"
         offset="0.371652"
         id="stop110" /><stop
         style="stop-opacity:1;stop-color:#ff88dc"
         offset="0.786355"
         id="stop112" /><stop
         style="stop-opacity:1;stop-color:#91a6ff"
         offset="1"
         id="stop114" /></radialGradient><radialGradient
       fx="0"
       fy="0"
       cx="0"
       cy="0"
       r="1"
       gradientUnits="userSpaceOnUse"
       gradientTransform="matrix(-75.739166,-2.4301336,-2.4301336,75.739166,156.19659,124.50088)"
       spreadMethod="pad"
       id="radialGradient142"><stop
         style="stop-opacity:1;stop-color:#f94646"
         offset="0"
         id="stop132" /><stop
         style="stop-opacity:1;stop-color:#f94646"
         offset="0.09925375"
         id="stop134" /><stop
         style="stop-opacity:1;stop-color:#faff7f"
         offset="0.371652"
         id="stop136" /><stop
         style="stop-opacity:1;stop-color:#ff88dc"
         offset="0.786355"
         id="stop138" /><stop
         style="stop-opacity:1;stop-color:#91a6ff"
         offset="1"
         id="stop140" /></radialGradient><radialGradient
       fx="0"
       fy="0"
       cx="0"
       cy="0"
       r="1"
       gradientUnits="userSpaceOnUse"
       gradientTransform="matrix(-75.739166,-2.4301336,-2.4301336,75.739166,156.19659,124.50088)"
       spreadMethod="pad"
       id="radialGradient168"><stop
         style="stop-opacity:1;stop-color:#f94646"
         offset="0"
         id="stop158" /><stop
         style="stop-opacity:1;stop-color:#f94646"
         offset="0.09925375"
         id="stop160" /><stop
         style="stop-opacity:1;stop-color:#faff7f"
         offset="0.371652"
         id="stop162" /><stop
         style="stop-opacity:1;stop-color:#ff88dc"
         offset="0.786355"
         id="stop164" /><stop
         style="stop-opacity:1;stop-color:#91a6ff"
         offset="1"
         id="stop166" /></radialGradient><radialGradient
       fx="0"
       fy="0"
       cx="0"
       cy="0"
       r="1"
       gradientUnits="userSpaceOnUse"
       gradientTransform="matrix(-75.739166,-2.4301336,-2.4301336,75.739166,156.19659,124.50088)"
       spreadMethod="pad"
       id="radialGradient194"><stop
         style="stop-opacity:1;stop-color:#f94646"
         offset="0"
         id="stop184" /><stop
         style="stop-opacity:1;stop-color:#f94646"
         offset="0.09925375"
         id="stop186" /><stop
         style="stop-opacity:1;stop-color:#faff7f"
         offset="0.371652"
         id="stop188" /><stop
         style="stop-opacity:1;stop-color:#ff88dc"
         offset="0.786355"
         id="stop190" /><stop
         style="stop-opacity:1;stop-color:#91a6ff"
         offset="1"
         id="stop192" /></radialGradient><radialGradient
       fx="0"
       fy="0"
       cx="0"
       cy="0"
       r="1"
       gradientUnits="userSpaceOnUse"
       gradientTransform="matrix(-75.739166,-2.4301336,-2.4301336,75.739166,156.19659,124.50088)"
       spreadMethod="pad"
       id="radialGradient220"><stop
         style="stop-opacity:1;stop-color:#f94646"
         offset="0"
         id="stop210" /><stop
         style="stop-opacity:1;stop-color:#f94646"
         offset="0.09925375"
         id="stop212" /><stop
         style="stop-opacity:1;stop-color:#faff7f"
         offset="0.371652"
         id="stop214" /><stop
         style="stop-opacity:1;stop-color:#ff88dc"
         offset="0.786355"
         id="stop216" /><stop
         style="stop-opacity:1;stop-color:#91a6ff"
         offset="1"
         id="stop218" /></radialGradient><radialGradient
       fx="0"
       fy="0"
       cx="0"
       cy="0"
       r="1"
       gradientUnits="userSpaceOnUse"
       gradientTransform="matrix(-75.739166,-2.4301336,-2.4301336,75.739166,156.19659,124.50088)"
       spreadMethod="pad"
       id="radialGradient246"><stop
         style="stop-opacity:1;stop-color:#f94646"
         offset="0"
         id="stop236" /><stop
         style="stop-opacity:1;stop-color:#f94646"
         offset="0.09925375"
         id="stop238" /><stop
         style="stop-opacity:1;stop-color:#faff7f"
         offset="0.371652"
         id="stop240" /><stop
         style="stop-opacity:1;stop-color:#ff88dc"
         offset="0.786355"
         id="stop242" /><stop
         style="stop-opacity:1;stop-color:#91a6ff"
         offset="1"
         id="stop244" /></radialGradient><radialGradient
       fx="0"
       fy="0"
       cx="0"
       cy="0"
       r="1"
       gradientUnits="userSpaceOnUse"
       gradientTransform="matrix(-75.739166,-2.4301336,-2.4301336,75.739166,156.19659,124.50088)"
       spreadMethod="pad"
       id="radialGradient272"><stop
         style="stop-opacity:1;stop-color:#f94646"
         offset="0"
         id="stop262" /><stop
         style="stop-opacity:1;stop-color:#f94646"
         offset="0.09925375"
         id="stop264" /><stop
         style="stop-opacity:1;stop-color:#faff7f"
         offset="0.371652"
         id="stop266" /><stop
         style="stop-opacity:1;stop-color:#ff88dc"
         offset="0.786355"
         id="stop268" /><stop
         style="stop-opacity:1;stop-color:#91a6ff"
         offset="1"
         id="stop270" /></radialGradient><radialGradient
       fx="0"
       fy="0"
       cx="0"
       cy="0"
       r="1"
       gradientUnits="userSpaceOnUse"
       gradientTransform="matrix(-75.753975,-2.4306087,-2.4306087,75.753975,156.19659,124.50088)"
       spreadMethod="pad"
       id="radialGradient298"><stop
         style="stop-opacity:1;stop-color:#f94646"
         offset="0"
         id="stop288" /><stop
         style="stop-opacity:1;stop-color:#f94646"
         offset="0.09925375"
         id="stop290" /><stop
         style="stop-opacity:1;stop-color:#faff7f"
         offset="0.371652"
         id="stop292" /><stop
         style="stop-opacity:1;stop-color:#ff88dc"
         offset="0.786355"
         id="stop294" /><stop
         style="stop-opacity:1;stop-color:#91a6ff"
         offset="1"
         id="stop296" /></radialGradient><radialGradient
       fx="0"
       fy="0"
       cx="0"
       cy="0"
       r="1"
       gradientUnits="userSpaceOnUse"
       gradientTransform="matrix(-75.739166,-2.4301336,-2.4301336,75.739166,156.19659,124.50088)"
       spreadMethod="pad"
       id="radialGradient324"><stop
         style="stop-opacity:1;stop-color:#f94646"
         offset="0"
         id="stop314" /><stop
         style="stop-opacity:1;stop-color:#f94646"
         offset="0.09925375"
         id="stop316" /><stop
         style="stop-opacity:1;stop-color:#faff7f"
         offset="0.371652"
         id="stop318" /><stop
         style="stop-opacity:1;stop-color:#ff88dc"
         offset="0.786355"
         id="stop320" /><stop
         style="stop-opacity:1;stop-color:#91a6ff"
         offset="1"
         id="stop322" /></radialGradient><radialGradient
       fx="0"
       fy="0"
       cx="0"
       cy="0"
       r="1"
       gradientUnits="userSpaceOnUse"
       gradientTransform="matrix(-75.739166,-2.4301336,-2.4301336,75.739166,156.19659,124.50088)"
       spreadMethod="pad"
       id="radialGradient350"><stop
         style="stop-opacity:1;stop-color:#f94646"
         offset="0"
         id="stop340" /><stop
         style="stop-opacity:1;stop-color:#f94646"
         offset="0.09925375"
         id="stop342" /><stop
         style="stop-opacity:1;stop-color:#faff7f"
         offset="0.371652"
         id="stop344" /><stop
         style="stop-opacity:1;stop-color:#ff88dc"
         offset="0.786355"
         id="stop346" /><stop
         style="stop-opacity:1;stop-color:#91a6ff"
         offset="1"
         id="stop348" /></radialGradient><radialGradient
       fx="0"
       fy="0"
       cx="0"
       cy="0"
       r="1"
       gradientUnits="userSpaceOnUse"
       gradientTransform="matrix(-75.739166,-2.4301336,-2.4301336,75.739166,156.19659,124.50088)"
       spreadMethod="pad"
       id="radialGradient376"><stop
         style="stop-opacity:1;stop-color:#f94646"
         offset="0"
         id="stop366" /><stop
         style="stop-opacity:1;stop-color:#f94646"
         offset="0.09925375"
         id="stop368" /><stop
         style="stop-opacity:1;stop-color:#faff7f"
         offset="0.371652"
         id="stop370" /><stop
         style="stop-opacity:1;stop-color:#ff88dc"
         offset="0.786355"
         id="stop372" /><stop
         style="stop-opacity:1;stop-color:#91a6ff"
         offset="1"
         id="stop374" /></radialGradient></defs><sodipodi:namedview
     id="namedview4"
     pagecolor="#ffffff"
     bordercolor="#666666"
     borderopacity="1.0"
     inkscape:pageshadow="2"
     inkscape:pageopacity="0.0"
     inkscape:pagecheckerboard="0"
     showgrid="false"
     inkscape:zoom="2.3279999"
     inkscape:cx="-43.599658"
     inkscape:cy="44.888318"
     inkscape:window-width="1864"
     inkscape:window-height="1016"
     inkscape:window-x="0"
     inkscape:window-y="0"
     inkscape:window-maximized="1"
     inkscape:current-layer="g8"
     fit-margin-top="0"
     fit-margin-left="0"
     fit-margin-right="0"
     fit-margin-bottom="0" /><g
     id="g8"
     inkscape:groupmode="layer"
     inkscape:label="Logo"
     transform="matrix(1.3333333,0,0,-1.3333333,-121.39866,211.86799)"><g
       id="g264"><g
         id="g10"><g
           id="g12"
           clip-path="url(#clipPath16)"><g
             id="g18"
             transform="translate(205.7151,146.4792)"><path
               d="m 0,0 h 1.215 v -4.566 c -0.559,-0.491 -1.221,-0.868 -1.985,-1.129 -0.763,-0.262 -1.567,-0.393 -2.411,-0.393 -1.196,0 -2.274,0.262 -3.231,0.785 -0.958,0.526 -1.71,1.252 -2.258,2.182 -0.547,0.93 -0.82,1.969 -0.82,3.121 0,1.15 0.273,2.191 0.82,3.121 0.548,0.928 1.3,1.654 2.258,2.18 0.957,0.523 2.04,0.787 3.249,0.787 0.912,0 1.75,-0.147 2.514,-0.436 C 0.114,5.361 0.759,4.93 1.283,4.359 L 0.496,3.557 C -0.45,4.49 -1.652,4.959 -3.112,4.959 -4.081,4.959 -4.956,4.744 -5.737,4.318 -6.518,3.891 -7.131,3.297 -7.575,2.539 -8.02,1.781 -8.242,0.934 -8.242,0 c 0,-0.936 0.222,-1.779 0.667,-2.531 0.444,-0.752 1.054,-1.346 1.83,-1.78 0.774,-0.433 1.646,-0.648 2.616,-0.648 1.232,0 2.275,0.307 3.129,0.922 z"
               style="fill:#222222;fill-opacity:1;fill-rule:nonzero;stroke:none"
               id="path20" /></g><path
             d="m 210.247,153.182 h 1.214 v -12.689 h -1.214 z"
             style="fill:#222222;fill-opacity:1;fill-rule:nonzero;stroke:none"
             id="path22" /><g
             id="g24"
             transform="translate(220.2424,141.9207)"><path
               d="M 0,0 C 0.508,0.291 0.904,0.705 1.189,1.24 1.474,1.775 1.616,2.387 1.616,3.07 1.616,3.754 1.474,4.363 1.189,4.9 0.904,5.436 0.508,5.85 0,6.141 -0.507,6.43 -1.08,6.576 -1.718,6.576 -2.356,6.576 -2.93,6.43 -3.437,6.141 -3.944,5.85 -4.343,5.436 -4.634,4.9 -4.925,4.363 -5.07,3.754 -5.07,3.07 c 0,-0.683 0.145,-1.295 0.436,-1.83 0.291,-0.535 0.69,-0.949 1.197,-1.24 0.507,-0.289 1.081,-0.436 1.719,-0.436 0.638,0 1.211,0.147 1.718,0.436 m -4.061,-0.922 c -0.696,0.393 -1.243,0.938 -1.642,1.633 -0.399,0.695 -0.598,1.48 -0.598,2.359 0,0.877 0.199,1.664 0.598,2.36 0.399,0.695 0.946,1.238 1.642,1.625 0.695,0.386 1.476,0.582 2.343,0.582 0.866,0 1.647,-0.196 2.343,-0.582 C 1.32,6.668 1.864,6.125 2.258,5.43 2.651,4.734 2.848,3.947 2.848,3.07 2.848,2.191 2.651,1.406 2.258,0.711 1.864,0.016 1.32,-0.529 0.625,-0.922 c -0.696,-0.394 -1.477,-0.592 -2.343,-0.592 -0.867,0 -1.648,0.198 -2.343,0.592"
               style="fill:#222222;fill-opacity:1;fill-rule:nonzero;stroke:none"
               id="path26" /></g><g
             id="g28"
             transform="translate(231.8283,141.9207)"><path
               d="M 0,0 C 0.513,0.291 0.915,0.705 1.205,1.24 1.496,1.775 1.642,2.387 1.642,3.07 1.642,3.754 1.496,4.363 1.205,4.9 0.915,5.436 0.513,5.85 0,6.141 -0.514,6.43 -1.083,6.576 -1.71,6.576 -2.349,6.576 -2.922,6.43 -3.429,6.141 -3.937,5.85 -4.335,5.436 -4.626,4.9 -4.917,4.363 -5.062,3.754 -5.062,3.07 c 0,-0.683 0.145,-1.295 0.436,-1.83 0.291,-0.535 0.689,-0.949 1.197,-1.24 0.507,-0.289 1.08,-0.436 1.719,-0.436 0.627,0 1.196,0.147 1.71,0.436 M 0.667,7.062 C 1.351,6.682 1.887,6.143 2.274,5.447 2.662,4.752 2.855,3.959 2.855,3.07 2.855,2.182 2.662,1.389 2.274,0.693 1.887,-0.002 1.351,-0.543 0.667,-0.932 c -0.685,-0.386 -1.448,-0.582 -2.292,-0.582 -0.752,0 -1.428,0.16 -2.026,0.481 -0.599,0.318 -1.08,0.779 -1.446,1.385 v -1.78 h -1.162 v 12.69 h 1.214 V 5.857 c 0.376,0.582 0.858,1.024 1.445,1.327 0.587,0.3 1.246,0.453 1.975,0.453 0.844,0 1.607,-0.192 2.292,-0.575"
               style="fill:#222222;fill-opacity:1;fill-rule:nonzero;stroke:none"
               id="path30" /></g><g
             id="g32"
             transform="translate(241.594,141.8367)"><path
               d="M 0,0 C 0.489,0.312 0.854,0.766 1.094,1.359 V 2.83 h -2.822 c -1.539,0 -2.308,-0.537 -2.308,-1.607 0,-0.526 0.199,-0.94 0.598,-1.241 0.399,-0.302 0.958,-0.453 1.676,-0.453 0.684,0 1.272,0.157 1.762,0.471 M 1.368,6.84 C 1.994,6.252 2.309,5.383 2.309,4.232 V -1.344 H 1.146 V 0.059 C 0.872,-0.408 0.47,-0.773 -0.061,-1.035 -0.591,-1.297 -1.221,-1.43 -1.95,-1.43 c -1.003,0 -1.801,0.241 -2.394,0.719 -0.593,0.479 -0.889,1.111 -0.889,1.898 0,0.764 0.276,1.379 0.829,1.848 0.553,0.467 1.433,0.701 2.642,0.701 h 2.856 v 0.547 c 0,0.776 -0.217,1.365 -0.65,1.77 C 0.011,6.457 -0.622,6.66 -1.454,6.66 -2.024,6.66 -2.571,6.566 -3.096,6.377 -3.62,6.189 -4.07,5.93 -4.446,5.6 l -0.548,0.906 c 0.456,0.387 1.003,0.687 1.641,0.898 0.639,0.211 1.312,0.317 2.019,0.317 1.174,0 2.074,-0.295 2.702,-0.881"
               style="fill:#222222;fill-opacity:1;fill-rule:nonzero;stroke:none"
               id="path34" /></g><path
             d="m 247.202,153.182 h 1.214 v -12.689 h -1.214 z"
             style="fill:#222222;fill-opacity:1;fill-rule:nonzero;stroke:none"
             id="path36" /><g
             id="g38"
             transform="translate(207.2883,131.9421)"><path
               d="m 0,0 v -11.971 h -1.248 v 5.524 h -7.49 v -5.524 h -1.266 V 0 h 1.266 v -5.336 h 7.49 V 0 Z"
               style="fill:#222222;fill-opacity:1;fill-rule:nonzero;stroke:none"
               id="path40" /></g><g
             id="g42"
             transform="translate(219.0373,128.9675)"><path
               d="m 0,0 v -8.996 h -1.163 v 1.642 C -1.482,-7.9 -1.921,-8.326 -2.479,-8.629 -3.038,-8.93 -3.677,-9.082 -4.395,-9.082 c -1.174,0 -2.101,0.328 -2.779,0.984 -0.679,0.657 -1.017,1.616 -1.017,2.881 V 0 h 1.213 v -5.096 c 0,-0.947 0.235,-1.666 0.702,-2.156 0.467,-0.49 1.134,-0.734 2.001,-0.734 0.946,0 1.693,0.287 2.24,0.863 0.548,0.576 0.821,1.377 0.821,2.402 V 0 Z"
               style="fill:#222222;fill-opacity:1;fill-rule:nonzero;stroke:none"
               id="path44" /></g><g
             id="g46"
             transform="translate(236.3176,128.0613)"><path
               d="M 0,0 C 0.645,-0.65 0.967,-1.607 0.967,-2.873 V -8.09 h -1.215 v 5.096 c 0,0.935 -0.225,1.648 -0.675,2.139 -0.451,0.49 -1.086,0.734 -1.907,0.734 -0.935,0 -1.67,-0.287 -2.206,-0.863 C -5.572,-1.561 -5.84,-2.355 -5.84,-3.369 V -8.09 h -1.214 v 5.096 c 0,0.935 -0.225,1.648 -0.675,2.139 -0.451,0.49 -1.092,0.734 -1.924,0.734 -0.924,0 -1.657,-0.287 -2.198,-0.863 -0.542,-0.577 -0.812,-1.371 -0.812,-2.385 V -8.09 h -1.214 v 8.996 h 1.162 v -1.642 c 0.319,0.547 0.764,0.968 1.334,1.265 0.57,0.297 1.226,0.446 1.967,0.446 0.753,0 1.405,-0.161 1.958,-0.479 0.553,-0.32 0.967,-0.793 1.24,-1.42 0.33,0.592 0.807,1.057 1.428,1.393 0.621,0.338 1.331,0.506 2.129,0.506 C -1.53,0.975 -0.645,0.648 0,0"
               style="fill:#222222;fill-opacity:1;fill-rule:nonzero;stroke:none"
               id="path48" /></g><g
             id="g50"
             transform="translate(245.0647,121.3152)"><path
               d="M 0,0 C 0.489,0.312 0.854,0.766 1.094,1.359 V 2.83 h -2.822 c -1.539,0 -2.308,-0.537 -2.308,-1.607 0,-0.526 0.199,-0.94 0.598,-1.241 0.399,-0.302 0.958,-0.453 1.676,-0.453 0.684,0 1.272,0.157 1.762,0.471 M 1.368,6.84 C 1.994,6.252 2.309,5.383 2.309,4.232 V -1.344 H 1.146 V 0.059 C 0.872,-0.408 0.47,-0.773 -0.061,-1.035 -0.591,-1.297 -1.221,-1.43 -1.95,-1.43 c -1.003,0 -1.801,0.241 -2.394,0.719 -0.593,0.479 -0.889,1.111 -0.889,1.898 0,0.764 0.276,1.379 0.829,1.848 0.553,0.467 1.433,0.701 2.642,0.701 h 2.856 v 0.547 c 0,0.776 -0.217,1.365 -0.65,1.77 C 0.011,6.457 -0.622,6.66 -1.454,6.66 -2.024,6.66 -2.571,6.566 -3.096,6.377 -3.62,6.189 -4.07,5.93 -4.446,5.6 l -0.548,0.906 c 0.456,0.387 1.003,0.687 1.641,0.898 0.639,0.211 1.312,0.317 2.019,0.317 1.174,0 2.074,-0.295 2.702,-0.881"
               style="fill:#222222;fill-opacity:1;fill-rule:nonzero;stroke:none"
               id="path52" /></g><g
             id="g54"
             transform="translate(257.9504,128.0515)"><path
               d="M 0,0 C 0.667,-0.654 1,-1.609 1,-2.863 V -8.08 h -1.214 v 5.096 c 0,0.935 -0.234,1.648 -0.701,2.138 -0.468,0.491 -1.135,0.735 -2.001,0.735 -0.969,0 -1.735,-0.287 -2.3,-0.864 -0.564,-0.576 -0.846,-1.371 -0.846,-2.384 V -8.08 h -1.214 v 8.996 h 1.162 v -1.66 c 0.331,0.549 0.79,0.973 1.377,1.275 0.587,0.301 1.268,0.453 2.044,0.453 C -1.565,0.984 -0.667,0.656 0,0"
               style="fill:#222222;fill-opacity:1;fill-rule:nonzero;stroke:none"
               id="path56" /></g><g
             id="g58"
             transform="translate(202.0901,100.5457)"><path
               d="M 0,0 C 1.049,0 1.967,0.209 2.753,0.625 3.54,1.041 4.149,1.617 4.583,2.352 5.017,3.088 5.232,3.934 5.232,4.891 5.232,5.85 5.017,6.695 4.583,7.43 4.149,8.166 3.54,8.742 2.753,9.158 1.967,9.574 1.049,9.781 0,9.781 H -3.54 V 0 Z m -4.806,10.877 h 4.874 c 1.266,0 2.383,-0.254 3.352,-0.762 C 4.389,9.607 5.142,8.9 5.678,7.994 6.213,7.088 6.481,6.055 6.481,4.891 6.481,3.729 6.213,2.693 5.678,1.787 5.142,0.881 4.389,0.174 3.42,-0.334 2.451,-0.84 1.334,-1.094 0.068,-1.094 h -4.874 z"
               style="fill:#222222;fill-opacity:1;fill-rule:nonzero;stroke:none"
               id="path60" /></g><path
             d="m 211.154,108.446 h 1.214 v -8.994 h -1.214 z m -0.018,2.223 c -0.171,0.172 -0.257,0.377 -0.257,0.617 0,0.226 0.086,0.428 0.257,0.598 0.171,0.171 0.382,0.255 0.633,0.255 0.251,0 0.462,-0.082 0.633,-0.246 0.17,-0.166 0.256,-0.363 0.256,-0.591 0,-0.25 -0.086,-0.461 -0.256,-0.633 -0.171,-0.17 -0.382,-0.256 -0.633,-0.256 -0.251,0 -0.462,0.086 -0.633,0.256"
             style="fill:#222222;fill-opacity:1;fill-rule:nonzero;stroke:none"
             id="path62" /><g
             id="g64"
             transform="translate(221.2434,101.2898)"><path
               d="m 0,0 c 0.524,0.279 0.932,0.67 1.223,1.172 0.291,0.502 0.435,1.07 0.435,1.709 0,0.639 -0.144,1.207 -0.435,1.703 -0.291,0.494 -0.696,0.883 -1.214,1.162 -0.52,0.279 -1.11,0.418 -1.771,0.418 -0.649,0 -1.234,-0.137 -1.753,-0.41 C -4.033,5.48 -4.437,5.094 -4.729,4.592 -5.02,4.09 -5.165,3.52 -5.165,2.881 -5.165,2.242 -5.02,1.674 -4.729,1.172 -4.437,0.67 -4.033,0.279 -3.515,0 c 0.519,-0.279 1.104,-0.42 1.753,-0.42 0.651,0 1.238,0.141 1.762,0.42 m 2.839,7.156 v -7.9 c 0,-1.527 -0.374,-2.658 -1.12,-3.395 -0.747,-0.734 -1.873,-1.103 -3.378,-1.103 -0.832,0 -1.622,0.123 -2.368,0.369 -0.747,0.244 -1.355,0.584 -1.822,1.018 l 0.616,0.921 c 0.433,-0.386 0.961,-0.689 1.582,-0.906 0.621,-0.215 1.274,-0.324 1.958,-0.324 1.139,0 1.977,0.266 2.513,0.795 0.536,0.531 0.804,1.353 0.804,2.471 v 1.146 c -0.376,-0.57 -0.869,-1.004 -1.478,-1.299 -0.611,-0.297 -1.287,-0.445 -2.027,-0.445 -0.845,0 -1.611,0.185 -2.301,0.555 -0.689,0.371 -1.231,0.89 -1.624,1.556 -0.393,0.668 -0.59,1.422 -0.59,2.266 0,0.844 0.197,1.596 0.59,2.258 0.393,0.662 0.932,1.173 1.616,1.539 0.684,0.365 1.454,0.547 2.309,0.547 0.764,0 1.453,-0.155 2.068,-0.461 C 0.804,6.455 1.3,6.012 1.676,5.43 v 1.726 z"
               style="fill:#222222;fill-opacity:1;fill-rule:nonzero;stroke:none"
               id="path66" /></g><g
             id="g68"
             transform="translate(234.761,107.532)"><path
               d="M 0,0 C 0.667,-0.656 1,-1.611 1,-2.865 V -8.08 h -1.214 v 5.096 c 0,0.935 -0.234,1.646 -0.701,2.136 -0.468,0.491 -1.135,0.737 -2.001,0.737 -0.969,0 -1.735,-0.289 -2.3,-0.864 -0.564,-0.576 -0.846,-1.371 -0.846,-2.386 V -8.08 h -1.214 v 8.994 h 1.162 v -1.658 c 0.331,0.547 0.79,0.973 1.377,1.273 0.587,0.303 1.268,0.453 2.044,0.453 C -1.565,0.982 -0.667,0.654 0,0"
               style="fill:#222222;fill-opacity:1;fill-rule:nonzero;stroke:none"
               id="path70" /></g><path
             d="m 239.062,108.446 h 1.214 v -8.994 h -1.214 z m -0.018,2.223 c -0.171,0.172 -0.257,0.377 -0.257,0.617 0,0.226 0.086,0.428 0.257,0.598 0.171,0.171 0.382,0.255 0.633,0.255 0.251,0 0.462,-0.082 0.633,-0.246 0.171,-0.166 0.257,-0.363 0.257,-0.591 0,-0.25 -0.086,-0.461 -0.257,-0.633 -0.171,-0.17 -0.382,-0.256 -0.633,-0.256 -0.251,0 -0.462,0.086 -0.633,0.256"
             style="fill:#222222;fill-opacity:1;fill-rule:nonzero;stroke:none"
             id="path72" /><g
             id="g74"
             transform="translate(248.3987,99.9988)"><path
               d="m 0,0 c -0.228,-0.205 -0.51,-0.361 -0.847,-0.471 -0.336,-0.107 -0.686,-0.162 -1.05,-0.162 -0.845,0 -1.495,0.229 -1.951,0.684 -0.456,0.457 -0.683,1.099 -0.683,1.933 v 5.438 h -1.608 v 1.025 h 1.608 v 1.967 h 1.214 V 8.447 h 2.736 V 7.422 H -3.317 V 2.053 c 0,-0.537 0.133,-0.944 0.402,-1.223 0.268,-0.281 0.652,-0.42 1.154,-0.42 0.25,0 0.492,0.039 0.727,0.119 0.233,0.08 0.435,0.196 0.607,0.342 z"
               style="fill:#222222;fill-opacity:1;fill-rule:nonzero;stroke:none"
               id="path76" /></g><g
             id="g78"
             transform="translate(257.9924,108.446)"><path
               d="m 0,0 -4.498,-10.072 c -0.365,-0.844 -0.786,-1.442 -1.266,-1.795 -0.478,-0.354 -1.054,-0.531 -1.726,-0.531 -0.434,0 -0.838,0.068 -1.215,0.205 -0.376,0.136 -0.701,0.343 -0.975,0.617 l 0.565,0.906 c 0.456,-0.457 1.003,-0.685 1.641,-0.685 0.411,0 0.761,0.115 1.052,0.343 0.291,0.227 0.562,0.616 0.813,1.162 L -5.216,-8.977 -9.234,0 H -7.97 L -4.583,-7.645 -1.197,0 Z"
               style="fill:#222222;fill-opacity:1;fill-rule:nonzero;stroke:none"
               id="path80" /></g><g
             id="g82"
             transform="translate(129.4787,125.2341)"><path
               d="M 0,0 H 3.054 V -6.926 C 2.16,-7.637 1.117,-8.184 -0.074,-8.563 -1.266,-8.944 -2.49,-9.135 -3.748,-9.135 c -1.771,0 -3.367,0.385 -4.79,1.155 -1.424,0.769 -2.54,1.833 -3.351,3.189 -0.811,1.356 -1.216,2.888 -1.216,4.593 0,1.704 0.405,3.234 1.216,4.592 0.811,1.356 1.932,2.419 3.363,3.189 1.431,0.77 3.041,1.154 4.828,1.154 1.456,0 2.78,-0.24 3.971,-0.72 1.192,-0.48 2.193,-1.183 3.004,-2.11 L 1.241,3.922 C -0.083,5.245 -1.68,5.907 -3.549,5.907 -4.774,5.907 -5.862,5.65 -6.813,5.138 -7.765,4.625 -8.509,3.905 -9.047,2.979 -9.585,2.051 -9.854,0.992 -9.854,-0.198 c 0,-1.159 0.269,-2.201 0.807,-3.128 0.538,-0.927 1.282,-1.655 2.234,-2.185 0.951,-0.529 2.031,-0.794 3.24,-0.794 1.356,0 2.548,0.298 3.573,0.894 z"
               style="fill:#222222;fill-opacity:1;fill-rule:nonzero;stroke:none"
               id="path84" /></g><g
             id="g86"
             transform="translate(152.2151,133.7224)"><path
               d="m 0,0 v -17.375 h -3.227 v 7.447 h -8.985 v -7.447 h -3.226 V 0 h 3.226 v -7.173 h 8.985 V 0 Z"
               style="fill:#222222;fill-opacity:1;fill-rule:nonzero;stroke:none"
               id="path88" /></g><g
             id="g90"
             transform="translate(164.3283,119.0779)"><path
               d="m 0,0 c 1.273,0 2.395,0.244 3.363,0.732 0.968,0.489 1.713,1.183 2.235,2.085 0.52,0.902 0.781,1.949 0.781,3.141 0,1.19 -0.261,2.237 -0.781,3.14 C 5.076,9.999 4.331,10.694 3.363,11.183 2.395,11.67 1.273,11.914 0,11.914 H -4.22 V 0 Z m -7.446,14.645 h 7.594 c 1.854,0 3.5,-0.36 4.94,-1.08 1.44,-0.719 2.557,-1.737 3.351,-3.053 C 9.233,9.196 9.631,7.678 9.631,5.958 9.631,4.236 9.233,2.718 8.439,1.402 7.645,0.087 6.528,-0.931 5.088,-1.65 3.648,-2.37 2.002,-2.73 0.148,-2.73 h -7.594 z"
               style="fill:#222222;fill-opacity:1;fill-rule:nonzero;stroke:none"
               id="path92" /></g></g></g><g
         id="g94"><g
           id="g96"><g
             id="g102"><g
               id="g104"><path
                 d="m 124.952,103.855 c -3.041,0 -5.974,0.631 -8.72,1.875 v 0 l -1.233,-2.72 c 3.136,-1.422 6.484,-2.142 9.953,-2.142 v 0 c 4.842,0 9.515,1.43 13.511,4.135 v 0 l -1.674,2.473 c -3.501,-2.369 -7.593,-3.621 -11.837,-3.621"
                 style="fill:url(#radialGradient116);stroke:none"
                 id="path118" /></g></g></g></g><g
         id="g120"><g
           id="g122"><g
             id="g128"><g
               id="g130"><path
                 d="m 112.874,145.897 1.497,-2.585 c 3.201,1.853 6.859,2.834 10.581,2.834 v 0 c 3.585,0 7.127,-0.915 10.242,-2.644 v 0 l 1.449,2.613 c -3.557,1.974 -7.6,3.017 -11.691,3.017 v 0 c -4.247,0 -8.423,-1.119 -12.078,-3.235"
                 style="fill:url(#radialGradient142);stroke:none"
                 id="path144" /></g></g></g></g><g
         id="g146"><g
           id="g148"><g
             id="g154"><g
               id="g156"><path
                 d="m 100.819,125 c 0,-4.156 1.075,-8.255 3.107,-11.854 v 0 l 2.601,1.47 c -1.78,3.152 -2.721,6.741 -2.721,10.384 v 0 c 0,5.03 1.796,9.904 5.059,13.724 v 0 l -2.272,1.94 c -3.723,-4.361 -5.774,-9.923 -5.774,-15.664"
                 style="fill:url(#radialGradient168);stroke:none"
                 id="path170" /></g></g></g></g><g
         id="g172"><g
           id="g174"><g
             id="g180"><g
               id="g182"><path
                 d="m 104.556,152.082 1.799,-2.384 c 3.136,2.366 6.639,4.089 10.412,5.122 v 0 l -0.788,2.881 c -4.14,-1.134 -7.984,-3.023 -11.423,-5.619"
                 style="fill:url(#radialGradient194);stroke:none"
                 id="path196" /></g></g></g></g><g
         id="g198"><g
           id="g200"><g
             id="g206"><g
               id="g208"><path
                 d="m 91.049,125 c 0,-2.69 0.317,-5.367 0.941,-7.96 v 0 l 2.903,0.7 c -0.568,2.363 -0.857,4.806 -0.857,7.26 v 0 c 0,7.574 2.767,14.861 7.791,20.518 v 0 l -2.234,1.984 C 94.083,141.297 91.049,133.306 91.049,125"
                 style="fill:url(#radialGradient220);stroke:none"
                 id="path222" /></g></g></g></g><g
         id="g224"><g
           id="g226"><g
             id="g232"><g
               id="g234"><path
                 d="m 94.189,110.735 c 1.889,-4.067 4.528,-7.673 7.846,-10.718 v 0 l 2.018,2.201 c -3.025,2.777 -5.433,6.066 -7.155,9.775 v 0 z"
                 style="fill:url(#radialGradient246);stroke:none"
                 id="path248" /></g></g></g></g><g
         id="g250"><g
           id="g252"><g
             id="g258"><g
               id="g260"><path
                 d="m 108.675,95.253 c 2.972,-1.628 6.161,-2.797 9.478,-3.472 v 0 l 0.596,2.927 c -3.023,0.615 -5.929,1.679 -8.638,3.165 v 0 z"
                 style="fill:url(#radialGradient272);stroke:none"
                 id="path274" /></g></g></g></g><g
         id="g276"><g
           id="g278"><g
             id="g284"><g
               id="g286"><path
                 d="m 124.952,94.086 v -2.988 c 6.625,0 13.044,1.912 18.562,5.53 v 0 l -1.638,2.498 c -5.03,-3.297 -10.883,-5.04 -16.924,-5.04"
                 style="fill:url(#radialGradient298);stroke:none"
                 id="path300" /></g></g></g></g><g
         id="g302"><g
           id="g304"><g
             id="g310"><g
               id="g312"><path
                 d="m 145.27,101.7 1.965,-2.25 c 0.778,0.68 1.535,1.404 2.249,2.152 v 0 l -2.161,2.062 c -0.652,-0.682 -1.342,-1.343 -2.053,-1.964"
                 style="fill:url(#radialGradient324);stroke:none"
                 id="path326" /></g></g></g></g><g
         id="g328"><g
           id="g330"><g
             id="g336"><g
               id="g338"><path
                 d="m 146.376,147.286 c 1.384,-1.331 2.65,-2.797 3.763,-4.358 v 0 l 2.433,1.734 c -1.221,1.712 -2.609,3.318 -4.125,4.776 v 0 z"
                 style="fill:url(#radialGradient350);stroke:none"
                 id="path352" /></g></g></g></g><g
         id="g354"><g
           id="g356"><g
             id="g362"><g
               id="g364"><path
                 d="m 124.952,155.915 c 4.839,0 9.474,-1.087 13.773,-3.231 v 0 l 1.333,2.673 c -4.717,2.353 -9.8,3.544 -15.106,3.544 v 0 z"
                 style="fill:url(#radialGradient376);stroke:none"
                 id="path378" /></g></g></g></g></g></g></svg>
