<svg version="1.1" xmlns="http://www.w3.org/2000/svg" xmlns:xlink="http://www.w3.org/1999/xlink" width="23.75" height="23.75" viewBox="0,0,23.75,23.75"><g transform="translate(-228.1334,-168.22917)"><g data-paper-data="{&quot;isPaintingLayer&quot;:true}" fill="#ffffff" fill-rule="nonzero" stroke="none" stroke-width="0" stroke-linecap="butt" stroke-linejoin="miter" stroke-miterlimit="10" stroke-dasharray="" stroke-dashoffset="0" style="mix-blend-mode: normal"><path d="M228.1334,180.10417c0,-6.55838 5.31662,-11.875 11.875,-11.875c6.55838,0 11.875,5.31662 11.875,11.875c0,6.55838 -5.31662,11.875 -11.875,11.875c-6.55838,0 -11.875,-5.31662 -11.875,-11.875zM239.98757,190.65278c5.79899,0 10.5,-4.70101 10.5,-10.5c0,-5.79899 -4.70101,-10.5 -10.5,-10.5c-5.79899,0 -10.5,4.70101 -10.5,10.5c0,5.79899 4.70101,10.5 10.5,10.5z"/><path d="M238.43368,174.38247c0,-0.87445 0.70888,-1.58333 1.58333,-1.58333c0.87445,0 1.58333,0.70888 1.58333,1.58333c0,0.87445 -0.70888,1.58333 -1.58333,1.58333c-0.87445,0 -1.58333,-0.70888 -1.58333,-1.58333z"/><path d="M238.47638,180.77949c0,-0.87445 0.70889,-1.58333 1.58334,-1.58333c0.87445,0 1.58333,0.70888 1.58333,1.58333c0,0.01677 -0.00026,5.20327 -0.00078,5.21991c-0.02647,0.85126 -0.72487,1.53321 -1.58255,1.53321c-0.85783,0 -1.55633,-0.68219 -1.58257,-1.53365c-0.00051,-0.0165 -0.00076,-5.20285 -0.00076,-5.21947z"/></g></g></svg>