<?xml version="1.0" encoding="UTF-8" standalone="no"?>
<svg
   version="1.1"
   width="660"
   height="440"
   viewBox="1 39 660 440"
   id="map"
   sodipodi:docname="map.svg"
   inkscape:version="1.1.2 (0a00cf5339, 2022-02-04)"
   xmlns:inkscape="http://www.inkscape.org/namespaces/inkscape"
   xmlns:sodipodi="http://sodipodi.sourceforge.net/DTD/sodipodi-0.dtd"
   xmlns="http://www.w3.org/2000/svg"
   xmlns:svg="http://www.w3.org/2000/svg"
   xmlns:rdf="http://www.w3.org/1999/02/22-rdf-syntax-ns#"
   xmlns:cc="http://creativecommons.org/ns#"
   xmlns:dc="http://purl.org/dc/elements/1.1/">
  <defs
     id="defs4509" />
  <sodipodi:namedview
     id="namedview4507"
     pagecolor="#ffffff"
     bordercolor="#666666"
     borderopacity="1.0"
     inkscape:pageshadow="2"
     inkscape:pageopacity="0.0"
     inkscape:pagecheckerboard="0"
     showgrid="false"
     inkscape:zoom="1.36"
     inkscape:cx="360"
     inkscape:cy="240.1"
     inkscape:window-width="1862"
     inkscape:window-height="1016"
     inkscape:window-x="0"
     inkscape:window-y="0"
     inkscape:window-maximized="1"
     inkscape:current-layer="map" />
  <title
     id="title2">Afterschool Geekeries map</title>
  <path
     id="belarus"
     style="fill:#d0d0e3;stroke:#ffffff;stroke-width:1.36794;stroke-miterlimit:4;stroke-dasharray:none"
     d="M 229.9,0.721 C 236.7,12.92 243.1,25.28 243.8,38.73 243.8,39.59 243,40.45 242.6,40.88 239.6,43.89 212.7,66.62 225.1,71.35 225.9,71.78 226.8,69.63 227.6,70.06 231.5,70.49 235.7,71.77 239.1,74.35 247.7,81.22 236.7,97.81 240.1,105.5 240.3,105.5 240.4,105.5 240.6,105.5 240.6,105.2 240.7,101.5 246.3,99.82 248.4,98.96 249,98.82 251.5,99.25 252.4,99.25 251.8,101.4 253.1,101.8 257.8,103.2 264.1,84.23 265,82.22 268.4,80.5 275.7,80.22 279.1,78.93 284.2,76.78 285.5,74.07 291,72.35 293.2,71.92 297.6,74.04 300.4,72.49 301.4,71.95 304.1,72.1 306.7,71.35 309.2,70.59 311.6,68.92 312.6,68.92 319,68.06 315.5,67.2 321.4,67.63 322.7,67.63 325.8,69.92 327.1,70.34 337.1,66.98 346.9,71.35 359.5,67.35 362.5,67.92 361.7,72.21 365.2,72.49 366.1,72.92 365.6,74.35 366.5,75.21 367.3,76.07 370.3,74.78 371.9,74.21 372.9,72.64 373.3,71.64 377,71.49 386.8,71.85 377.9,76.79 382.8,78.08 384.1,78.15 385.1,76.64 385.5,75.79 384.9,72.5 384.4,69.92 386.5,69.92 388.7,69.49 392.1,72.5 394.6,69.49 396.3,67.77 394.7,64.34 398.2,64.48 401.9,64.63 399,68.5 403.3,69.35 406,69.89 405.4,64.26 410.6,65.62 414.7,66.63 411.8,70.06 417.1,71.49 419.6,71.92 417.2,66.92 418.9,64.77 423.6,61.41 426.7,55.61 429.4,56.76 433,58.22 435.7,69.06 439.1,68.2 446.2,66.34 441.8,60.62 448.6,58.9 451.2,58.47 451.5,61.62 453.6,61.19 454.7,59.47 455.8,57.47 457.3,58.33 459.2,59.44 458.5,54.97 467.3,54.47 472.5,56.61 473.6,61.26 476.5,62.19 478.8,60.93 481.2,59.66 483.3,58.33 483.3,58.28 483.3,58.24 483.3,58.19 482.6,54.21 475.9,48.41 475.9,45.17 475.9,41.73 476.6,33.73 477.6,30.58 479.7,24.96 481,20.55 482.9,18.56 481.4,15.37 481.9,14.91 485.6,13.13 488.6,12.27 489.9,14.55 492.4,13.27 494.1,12.41 492.7,9.204 497.1,7.971 503,6.327 506.3,5.329 510.7,4.112 510.3,3.193 510.7,1.985 510,0.961 510,0.961 509.7,0.74 509.7,0.721 Z" />
  <path
     id="poland"
     style="fill:#d0d0e3;stroke:#ffffff;stroke-width:1.36794;stroke-miterlimit:4;stroke-dasharray:none"
     d="M 0.6844,0.721 V 193.1 C 5.309,195.8 3.419,197.7 0.6844,199.6 V 208.8 L 5.355,211.7 C 6.635,213.4 9.187,224.6 15.59,222 17.29,221.1 16.87,218.1 18.14,216.8 20.28,215.1 24.54,216 25.82,213.4 26.25,212.6 16.87,203.1 19.43,202.7 25.83,201.8 33.07,208.3 36.91,209.5 38.61,210 40.74,209.1 42.45,209.1 44.15,209.1 46.29,210 47.99,209.1 48.85,208.7 48.42,207 48.84,206.1 49.27,205.7 50.13,205.7 50.13,206.1 55.24,216.4 51.84,210 46.29,215.1 44.58,216.4 50.55,216.8 52.26,218.1 53.54,219.4 53.11,221.6 54.39,222.9 55.24,223.7 56.52,224.1 57.38,224.1 69.75,222.9 55.66,222 62.92,219 63.77,218.6 63.77,220.3 64.62,220.7 66.33,222 71.01,223.3 73.15,223.7 75.7,224.6 79.55,223.3 81.68,225 82.11,225.4 85.94,235.7 86.36,236.2 88.07,237.4 91.48,236.2 93.19,237.9 94.89,240 93.61,244 95.32,246.2 95.53,246.5 95.89,246.6 96.31,246.6 97.15,246.6 98.21,246.2 99.16,246.2 99.63,246.2 100.1,246.3 100.4,246.6 100.8,246.9 100.9,247.4 100.9,247.9 100.9,248.9 100.4,249.9 100.4,250.9 100.4,251.4 100.5,251.9 100.9,252.2 107.7,257.8 113.2,235.7 117.5,238.7 120,240.4 120,244.5 122.2,246.6 122.3,246.7 122.5,246.7 122.7,246.6 123,246.5 123.2,246.4 123.5,246.3 124,246.1 124.5,246 124.7,246.2 125.2,247 123.5,248.7 124.3,249.2 126.4,249.6 128.6,247.5 130.3,248.3 133.3,249.6 130.7,257.8 130.7,258.6 130.7,260.8 134.5,257.3 136.7,256.9 138.4,256.5 140.1,259.9 141.8,259 141.9,258.9 142.3,258.1 142.9,256.8 143.6,255.4 144.4,253.7 145.5,251.9 146,251 146.6,250 147.2,249.2 147.8,248.3 148.4,247.6 149,246.9 149.7,246.2 150.5,245.5 151.2,245 151.9,244.5 152.6,244.2 153.3,244 155,243.6 156.9,245.3 158.6,245.3 160.3,244.9 161.1,242.3 162.8,242.7 166.2,243.2 168.4,247.9 171.8,247.9 174.3,247.9 176.5,245.3 177.8,243.2 178.2,242.3 175.6,242.3 175.6,241.4 176.9,235.4 179.5,241.4 181.2,240.6 181.5,240.5 181.7,240.2 181.9,239.9 182.3,239.2 182.6,238.4 183,237.9 183.1,237.7 183.2,237.7 183.3,237.6 183.4,237.5 183.6,237.4 183.7,237.4 185.3,237 187.3,236.7 189.7,236.6 191.4,236.5 193.3,236.5 195.2,236.6 195.5,236.6 195.8,236.7 196.1,236.7 197.7,236.8 199.5,237 201.1,237.3 202,237.5 202.9,237.7 203.8,237.9 204.6,238.1 205.4,238.3 206.2,238.6 206.7,238.8 207.3,239 207.7,239.2 207.9,239.3 208.1,239.3 208.3,239.4 209,239.8 209.6,240.2 210.2,240.6 210.8,241.2 211,242.3 211.3,243.3 211.4,243.8 211.5,244.3 211.7,244.7 211.9,245.2 212.3,245.5 212.7,245.7 215.3,247.5 218.3,247.5 221.2,248.3 225.1,249.6 226.2,249.9 230.1,250.3 230.8,250.5 231.5,250.7 232.3,250.8 233.8,251.6 235.5,251.2 236.7,251.6 238.9,251.6 239.6,250.6 241.7,251 242.3,251.3 243.5,252.4 243.8,252.7 239.7,242.9 239.6,251.6 236.3,244.3 234.6,242.6 237.4,241 237,238.9 235.7,234.6 231.3,229.3 230.5,224.6 230.4,224.3 230.5,223.9 230.6,223.3 231,221.6 232.3,218.7 234,215.1 235.2,212.8 236.5,210.1 238,207.3 245.6,193.1 256.5,174.9 259,170.6 266.7,164.2 268.7,172.5 270,157 270,153.6 263.6,147 263.2,146.6 262.1,144.5 263.7,143.8 265.4,143.5 266.3,143.3 267.1,143.1 267.7,143 268.3,142.9 268.6,142.8 268.3,142.5 261.5,137.3 249.8,127.6 246,119.4 245.5,118.3 245.5,117.3 245.5,116.1 245.6,115.5 245.6,114.9 245.5,114.3 245.5,113.7 245.5,113.1 245.3,112.4 245.3,111.1 240.6,105.7 240.6,105.7 V 105.5 C 240.4,105.5 240.3,105.5 240.1,105.5 237.2,98.78 245.2,85.24 241.6,77.36 241.6,77.32 241.6,77.25 241.6,77.21 241.3,76.68 241,76.27 240.6,75.79 240.2,75.28 239.7,74.79 239.1,74.36 235.7,71.78 231.5,70.49 227.6,70.06 227.2,69.85 226.8,70.21 226.4,70.64 226.3,70.67 226.4,70.75 226.4,70.78 226.2,70.91 226.1,70.96 225.9,71.07 225.9,71.14 225.7,71.15 225.6,71.21 225.5,71.29 225.2,71.44 225.1,71.35 212.7,66.63 239.6,43.89 242.6,40.88 242.8,40.67 243.1,40.39 243.4,40.02 243.5,39.83 243.6,39.51 243.7,39.3 243.8,39.1 243.8,38.94 243.8,38.73 243.6,34.3 242.7,29.94 241.4,25.71 241,24.3 240.5,22.96 240,21.56 238,16.04 235.2,10.6 232.3,5.254 232.3,5.217 232.3,5.15 232.3,5.114 231.5,3.638 230.7,2.187 229.9,0.72 Z" />
  <path
     id="moldova"
     style="fill:#d0d0e3;stroke:#ffffff;stroke-width:1.36794;stroke-miterlimit:4;stroke-dasharray:none"
     d="M 421.8,243.6 C 421.3,243.6 420.7,243.6 420.2,243.6 419.2,243.7 418.4,243.8 417.7,244.2 417.3,244.3 416.9,244.6 416.7,244.9 416.4,245.1 416.3,245.4 416.1,245.7 415.9,246.1 415.7,246.5 415.5,246.7 415.3,247 415.1,247.2 414.8,247.3 413.2,248.3 410.6,248.2 407.6,253 406.7,253.5 393.5,256 393.5,256.5 393.5,257.3 394.3,258.2 394.8,259 L 390.5,258.2 390.1,259.9 V 260.8 L 389.7,261.8 C 389.7,262.6 389.6,263.4 389.7,264.2 395.6,261.2 399.5,263.8 404.2,267.6 413.1,274.1 414.9,284.8 422.2,292.1 434.1,303.7 466.5,324.3 470.4,341 473.4,351.8 469.5,363.8 472.1,374.5 472.8,378.5 478.2,386.6 479.8,391.9 H 479.3 C 480.1,393.9 480.1,393.6 479.2,396 478.7,397.3 479.2,397.7 479.8,398 480.3,398.2 481,398.3 481.2,399 481.5,400.2 481,400.1 481.9,400.5 482.8,401 482.4,400.5 483,401.5 483.2,401.8 483.5,401.6 483.7,401.7 L 484.6,399.1 486.4,396.5 491.6,397.4 491.7,399 C 492.7,398.4 493.8,397.8 495.3,397.1 L 495,396.7 493.8,394.5 V 391.8 C 493.8,391.8 493.7,390.8 493.7,389.2 493.7,389.2 493.7,389.1 493.7,389.1 493.6,387.7 493.6,386 494.3,383.1 495.5,381.4 498.1,380.1 499.8,377.9 501.9,374.9 496.7,371.5 500.5,368.5 502.2,366.8 505.2,366.2 506.1,364.5 506.9,362.8 505.1,362.1 505.1,359.9 505.1,357.8 506.9,356 506.5,353.9 505.6,350.5 499,350.9 499.8,341 500.3,340.4 501.1,339.4 501.8,338.4 502.9,337 504.1,335.5 505.2,334.6 505.6,334.3 505.9,334 506.2,333.9 506.9,333.6 507.5,333.7 507.9,334.4 508.8,336.2 510,337.3 510.5,339.4 510.5,340.3 509.6,340.7 509.6,341.6 509.9,341.9 510.6,342.2 511,342.2 511.2,342.2 511.3,342.1 511.5,342 511.8,341.6 512,341.1 512,340.6 512.1,340.1 512,339.4 512,338.9 512,338.8 512,338.8 512,338.7 512,338.1 512.1,337.6 512.3,337 512.4,336.7 512.5,336.6 512.7,336.3 512.9,336.1 513.1,335.8 513.3,335.6 513.7,334.7 515.2,338.7 516,338.3 516.2,338.2 516.4,338.2 516.6,338 517.8,337.1 518,334.4 518.7,333.3 518.7,333.3 524.1,337.3 525.8,337.7 526.5,337.8 526.8,337.5 527,336.9 527.1,336.2 527,335.3 527,334.4 526.9,332.7 526.8,330.9 528.1,330.9 530.6,330.9 532,336.2 533.3,337.9 533.6,338.2 533.8,338.3 534.1,338.3 534.3,338.3 534.5,338.3 534.8,338 535.2,337.2 534.8,336.3 535.6,335.4 536.2,335 536.7,334.6 537.3,334.3 538.6,333.7 540,333.3 541.3,332.7 542,332.4 542.7,332 543.3,331.6 543.3,331.1 533.5,329.9 532.6,326.9 532.3,326.2 533.7,326 534.4,325.6 534.4,325.6 534.4,325.6 534.4,325.6 534.6,325.5 534.6,325.5 534.7,325.4 534.7,325.3 534.8,325.2 534.8,325.1 L 530.4,310.5 C 529.1,309.5 525.7,308.9 522.4,308.3 520.7,308 519.1,307.7 517.7,307.4 516.3,307.1 515.2,306.7 514.6,306.3 512.9,304.5 515.8,299.3 512,299 509,300.9 510.7,298.2 511.6,294.7 511.6,294.7 511.6,294.6 511.6,294.5 512.3,291.7 512.4,288.5 509,286.7 508.2,286.2 507.6,286 507.1,286 507.1,286 507.1,286 507.1,286 507.1,286 507,286 507,286 506.9,286 506.8,286 506.7,286 506.7,286 506.7,286 506.7,286 506.6,286 506.5,286.1 506.3,286.2 506.3,286.2 506.3,286.2 506.3,286.2 506.3,286.2 506.3,286.2 506.3,286.2 506.3,286.3 506.3,286.3 506.3,286.3 505.8,286.7 505.7,287.7 505.7,288.6 505.7,289.4 505.9,290.3 505.7,290.7 505.7,290.7 505.7,290.7 505.7,290.7 505.7,290.8 505.7,290.8 505.6,290.8 505.4,290.9 505,290.7 504.4,289.9 503.9,289.4 503.3,288.9 502.8,288.5 502.8,288.5 502.8,288.5 502.8,288.5 502.2,287.9 501.6,287.4 500.9,287 500.9,287 500.8,287 500.8,287.1 497.2,284.8 492.9,283.3 490.7,280.2 487.7,270.8 494,261.3 484.2,254.9 483.4,254.5 482.9,254.5 482.6,254.7 482.5,254.8 482.4,254.9 482.4,255 481.8,255.7 481.8,257.5 481.4,258.7 481.3,258.8 481.3,258.9 481.2,259 481.1,259.3 481,259.5 480.8,259.6 480.4,259.9 479.8,259.9 479.1,259.6 472.6,256.9 472.6,253 470,251.4 469.9,251.4 469.9,251.4 469.9,251.4 469.3,251 468.6,250.7 467.6,250.7 467.2,250.6 466.8,250.6 466.4,250.6 466,250.7 465.5,250.7 464.9,250.8 464.7,250.8 464.4,250.9 464.1,250.9 463.1,251.1 461.9,251.4 460.4,251.7 460.3,251.8 460.2,251.9 460.1,251.9 460.1,251.9 460.1,251.9 460.1,251.9 460,252 460,252 459.9,252.1 459.9,252.1 459.8,252.2 459.7,252.3 459.7,252.3 459.7,252.3 459.7,252.4 459.7,252.4 459.7,252.4 459.7,252.4 459.6,252.5 459.5,252.7 459.5,252.9 458.6,255.1 459.8,259.6 458.4,258.2 457.2,256.9 457.2,254.8 455.9,253 455,252.2 452.9,258.6 452,255.2 451.6,253.5 453.8,249.2 452,249.6 449.5,249.9 447.2,251.7 444.9,252.6 444.6,252.8 444.2,252.8 443.8,252.9 443.4,253 443,253 442.7,253 442.5,253 442.3,253 442.2,252.9 441.5,252.2 441.9,249.5 440.8,248.7 440.3,248.4 439.9,248.1 439.5,247.9 437.5,246.9 436.2,247.9 432.9,246.7 432.2,246.5 431.4,246.2 430.6,245.7 429.7,245.3 428.8,244.7 427.7,244 425.6,243.9 423.6,243.6 421.8,243.6 Z M 533.6,368.1 C 533.5,368.1 533.6,368.3 533.6,368.5 533.7,368.7 533.8,369 533.9,369.3 534.2,370 534.6,370.8 534.9,371.6 535.4,371 535.9,370.4 536.3,369.8 536.1,369.4 535.7,369 535.3,368.8 535,368.5 534.6,368.3 534.1,368.2 533.8,368.1 533.7,368 533.6,368.1 Z" />
  <path
     id="croatia"
     style="fill:#d0d0e3;stroke:#ffffff;stroke-width:1.36794;stroke-miterlimit:4;stroke-dasharray:none"
     d="M 19.09,422.2 C 18.23,421.9 13.72,425.2 13.92,426.2 14.29,427.9 15.19,429 15.73,430.4 16.7,430.7 16.89,431.5 16.73,432.4 16.73,432.4 16.16,432.5 15.3,432.4 14.45,432.3 14.02,432 14.02,432 13.81,433.2 12.37,432.7 12.04,432.4 11.38,431.7 11.23,431 10.33,431.4 9.422,431.8 7.319,431.7 7.006,432.4 6.692,433.1 8.607,434.7 8.055,435 4.199,437.9 2.022,439.2 0.6844,439.7 V 479.3 H 130.8 C 129.5,478.4 128.1,477.6 126.6,476.9 127.4,475.9 128.2,474.6 128.4,474.4 127.8,473.7 126.6,473.6 126.6,472.6 126.4,471.9 127.4,471.3 127.9,470.6 128.1,470.8 129.6,471.1 130.3,470.2 130.9,469.3 130.7,468.8 129.7,468.3 128.1,468.9 128.2,467.4 127.9,467.2 126.5,467 125.2,468 124.2,468.3 123.5,467.1 122.8,466.5 122.3,465.9 122.3,464.7 124.1,465.1 124.2,464.3 121.3,462.5 124.5,463 124.9,461.8 124.3,459.9 122.6,460.3 122.3,459.3 126.4,460.4 124.8,452.3 121.8,456.9 120.2,456.4 118.8,455.2 119.8,455 123.9,455.4 121.6,450.9 118.8,453 118.1,450.8 121.1,451.1 120.3,449.8 118.9,448.4 120.4,447.8 120.5,447.3 120.1,447.2 118.8,447.2 118.8,447.2 119,448.5 117.4,448.2 117.1,447.7 116.3,448.4 117,449.2 116.9,449.9 115,449.9 114,448.9 112.5,448.2 L 110.9,448.6 C 110.6,451.1 110.5,450.4 109.7,452.3 110.4,453.2 108.8,454.4 108.1,454.8 108.3,455.8 106.7,455.9 106,456.5 L 105.1,456 C 105.9,457.9 104.6,457.7 103.6,457.9 104.6,460.6 102.5,458.9 101.9,459.5 101.8,456.8 99.55,459.3 99.29,459.3 L 97.59,458.9 C 96.95,459.7 96.09,459 95.32,459 92.96,457.2 91.27,458.3 89.77,459.5 L 86.64,459.2 C 84.86,457.8 81.49,459.3 80.96,460.6 77.8,457.6 74.74,457.7 71.86,455.8 70.91,454.1 69.47,453.4 67.89,452.2 66.37,453 64.52,452.2 63.2,451.9 62.99,454.2 58.78,453 60.36,452 60.76,452.1 61.45,452.2 61.34,451.7 59.82,451.3 61.04,451.1 60.5,450 59.65,450.4 58.88,451.1 58.08,451.6 57.92,450.7 58.68,450.9 59.21,450 57.11,450.7 57.34,449.6 55.81,449.2 56.44,448.1 56.65,447.4 52.06,442.7 51.23,441.8 48.97,443.7 50.97,441.5 49.75,440.3 46.83,439.3 43.58,438.4 L 43.44,437.4 42.59,437.6 C 41.78,436.6 40.68,436.2 39.75,435.6 39.86,433 38.61,432.4 37.47,430.6 36.81,431 36.48,430.3 36.05,430.1 L 33.92,430.3 C 33.85,428.8 32.99,429.7 32.64,430 L 30.37,426.4 C 29.18,426.2 27.95,425.6 26.95,426 23.79,424.4 20.64,422.7 19.09,422.2 Z" />
  <path
     id="austria"
     style="fill:#d0d0e3;stroke:#ffffff;stroke-width:1.36794;stroke-miterlimit:4;stroke-dasharray:none"
     d="M 15.9,294.7 C 15.49,294.6 15.1,294.6 14.73,294.7 12.6,295.6 11.74,299 9.184,300.3 7.478,300.7 5.344,299.9 3.638,299.9 2.639,299.8 1.66,299.6 0.6844,299.3 V 415.2 C 1.876,415.6 3.274,416.2 5.202,417.5 6.481,417 3.924,414.8 3.498,413.5 2.663,409 5.004,406.8 8.476,405.7 8.669,405.7 8.851,405.6 9.044,405.6 9.138,405.5 10.2,404 11.88,401.6 13.79,397.2 17.33,396.5 19.56,397.3 21.79,398.1 22.62,398.8 21.98,395.6 21.34,392.4 21.86,391 22.98,389.7 24.09,388.4 20.52,391 19.56,388.7 18.61,386.5 20.15,384.4 21.27,382.8 22.38,381.2 20.82,381.8 19.7,379.6 18.59,377.3 20.04,377.6 19.56,374.8 19.08,372.1 24.52,376.1 25.96,374 27.39,371.9 27.93,372.2 26.81,369.7 25.7,367.1 28.62,367.2 27.67,365 26.71,362.7 21.92,364.4 19.85,362.8 17.78,361.2 18.26,359.5 19.85,358.2 21.44,357 21.41,353.3 25.39,355.2 29.37,357.2 32.11,358.1 33.07,357 34.02,355.8 38.18,358.6 39.61,356.8 41.04,355.1 42.71,354.6 41.59,352.1 40.48,349.5 41.74,350.1 39.03,347.5 36.33,344.9 40.55,347.4 41.02,344.2 41.41,341.6 39.09,338 41.74,337.1 41.68,337 41.65,336.9 41.59,336.8 36.47,331.2 32.21,325.6 28.38,319.2 24.96,313.6 37.33,304.6 28.38,298.2 27.1,297.3 25.39,299.9 24.11,299.9 22.25,299.5 18.75,295.2 15.9,294.7 Z" />
  <path
     id="czechia"
     style="fill:#d0d0e3;stroke:#ffffff;stroke-width:1.36794;stroke-miterlimit:4;stroke-dasharray:none"
     d="M 0.6844,193.1 V 199.6 C 3.415,197.6 5.305,195.8 0.6844,193.1 Z M 20.63,202.6 C 20.23,202.6 19.83,202.6 19.43,202.7 16.87,203.1 26.25,212.6 25.82,213.4 24.54,216 20.28,215.1 18.14,216.8 16.86,218.1 17.29,221.1 15.59,222 9.187,224.6 6.635,213.4 5.355,211.7 L 0.6844,208.8 V 299.3 C 1.662,299.5 2.65,299.7 3.651,299.8 5.358,299.8 7.484,300.7 9.191,300.2 11.75,299 12.6,295.5 14.74,294.7 17.72,293.8 21.98,299.4 24.11,299.8 25.39,299.8 27.1,297.2 28.38,298.1 30.51,299.8 31.36,301.5 31.36,303.3 37.76,277.9 51.82,299.4 64.62,283.1 65.47,281.8 64.19,279.6 65.05,278.4 66.33,276.6 69.31,277.5 70.59,275.8 70.59,275.8 74,262.5 74,262.1 77.84,255.2 88.06,249.6 95.32,246.2 93.61,244 94.89,240 93.19,237.9 91.48,236.2 88.07,237.4 86.36,236.2 85.94,235.7 82.11,225.4 81.68,225 79.55,223.3 75.7,224.6 73.15,223.7 71.01,223.3 66.33,222 64.62,220.7 63.77,220.3 63.77,218.6 62.92,219 55.66,222 69.74,222.9 57.37,224.1 56.52,224.1 55.24,223.7 54.39,222.9 53.11,221.6 53.54,219.4 52.26,218.1 50.55,216.8 44.58,216.4 46.28,215.1 51.83,210 55.24,216.4 50.13,206.1 50.13,205.7 49.27,205.7 48.84,206.1 48.42,207 48.85,208.7 47.99,209.1 46.29,210 44.15,209.1 42.45,209.1 40.74,209.1 38.61,210 36.91,209.5 33.31,208.3 26.71,202.6 20.63,202.6 Z" />
  <path
     id="romania"
     style="fill:#d0d0e3;fill-opacity:1;stroke:#ffffff;stroke-width:1.36794;stroke-miterlimit:4;stroke-dasharray:none"
     d="M 393.8,262.9 C 392.5,263 391.2,263.4 389.7,264.2 389.4,264 389.1,263.8 388.8,263.6 L 388.4,264.6 388,265.9 C 384.5,266.8 381.8,267.8 379.7,270.3 377.1,274.4 378.9,276.8 375.4,282.6 369.4,287.7 354.5,288.7 346.3,293.5 345.1,294.2 344.2,294.9 343.3,295.8 340,302.8 339.8,305.9 332.5,308.8 330.4,306 329.4,304.5 325.1,303.5 324.7,303.4 324.3,303.3 323.9,303.1 320.9,301.8 319.2,298.8 314.3,298.5 313.4,298.6 312.6,298.9 311.9,299.2 311.3,299.6 310.6,300.2 310.1,300.7 309.5,301.2 309,301.8 308.4,302.3 308,302.5 307.6,302.8 307.2,303 306.8,303.2 306.4,303.4 305.9,303.5 302.8,303 299.4,302.4 296,302.8 295.4,302.9 294.9,303 294.3,303.1 293.7,303.3 293.2,303.4 292.6,303.7 286.2,302.2 284.6,304.7 279.7,302.4 278.8,302.8 277.2,305 276.4,305.1 272.8,305.4 269.2,299.9 264.3,299.8 263.5,299.8 263.5,301.1 263,302 262.5,304.3 261.9,305.7 261.2,306.7 260.5,307.7 259.7,308.2 259,308.5 257.7,309.2 256.5,309.1 256.2,311 252.8,314.4 252.4,320.8 247.7,323 243,324.7 239.6,322.6 236.6,326 227.2,335 230.2,341 228.1,349.2 228.1,350.5 225.9,349.6 225.1,350.5 222.9,353.9 218.3,365.9 217.8,369.8 217.8,370.6 220,370.6 220,371.5 220,373.6 218.7,375.4 217.8,377.5 L 213.1,392.5 C 212.3,393.8 210.2,393.8 209.3,395.1 207.2,399.8 209.7,415.3 201.6,418.3 199.1,419.1 196.1,416.1 193.1,416.6 185.4,417.8 191.8,420 191,421.7 190.1,424.7 172.5,422.6 170.9,428 171.4,428.7 171.2,429.4 171.6,429.7 173,430.8 174.1,431 175.9,435.4 176.5,436.8 178.7,435.8 180.2,436.4 181.6,437.1 182,439.4 182.3,440 183.3,439.6 184,439.4 184.4,439.6 184.9,439.7 185.1,440.1 185.6,440.7 189.7,443.4 188.1,445 191.1,446.7 194.8,446.7 192.7,445.6 194,445.2 L 194.5,445.5 C 194.7,445.9 195.4,446.6 195.2,448.3 195,450.3 196,450.8 194.8,453.6 193.5,456.7 197.1,455.7 197.4,458.2 197.6,460 195.3,460.5 195.9,461.5 196.1,461.8 199.9,461 200.5,463.5 201,465.4 201.7,463.5 203.5,466.5 203.9,467.2 208.3,469.8 210.2,469.9 212,470.1 211.2,467.7 212.4,468.2 213.6,468.6 214.2,471.8 216,471.8 220.3,471.8 223.2,472.4 227.1,474.5 228.3,475.3 227.9,476.5 226.8,476.9 225.2,477.5 226,478.1 226.2,479.3 H 521.2 C 521.2,478.7 519.1,475.7 518.8,474.9 518.6,474.1 520,473.8 520,473.8 520,473.8 519.8,473.6 519.6,473.4 519.3,473.1 518.8,471.3 518.3,470.3 517.7,469.4 518.4,468.9 517.9,467.8 517.3,466.6 517,468 516,465.3 515,462.7 515.3,462.3 516.2,460.6 516.8,459.3 517.2,459.9 517.4,460.3 517.4,460 517.3,459.5 517.4,458.6 517.6,456.9 519.1,454.8 521.1,450.2 523.2,445.6 522.9,443.7 523.4,441.3 523.9,438.9 527.1,433.6 529.4,431.3 531.7,429 537.1,427.3 540,426.3 543,425.2 544.7,424.7 545,424.1 545.3,423.6 546.1,423.4 546.1,423.4 546.1,423.4 545.1,425.8 544.4,426.7 543.7,427.6 542.2,428 542.2,428 542.2,428 543.2,428.2 544.6,427.3 545.9,426.4 546,424.1 546.4,423.3 546.8,422.4 546.5,421.2 546.4,420.4 546.3,419.7 545,410.2 544.9,407.5 544.7,404.9 546.6,404.1 546.6,404.1 546.6,404.1 545.4,404.2 544.1,404.7 542.9,405.2 542.8,404 542.3,403 541.8,402 543.6,402.4 544.4,402.4 544.3,402.2 544.2,401.9 543.6,401.4 542.3,400.2 543,399.5 543,399.5 543,399.5 543.7,398.9 543,398.1 542.3,397.3 541.4,395.2 540.7,394.7 540.1,394.1 538,392.8 536.6,392.5 535.2,392.3 533.4,392.2 532.2,392 531.6,391.8 531.4,391.8 531.2,391.8 531,391.8 531,391.9 530.6,392.1 530,392.5 529.7,392.1 529.4,392.5 529,392.9 528.8,392.9 528.2,392.7 527.7,392.4 527.4,392 526.9,393 526.5,393.9 526.4,393.9 525.1,393.8 523.8,393.7 523.5,394.8 523.1,395.1 522.7,395.4 522.5,395.5 522.4,396.1 522.3,396.7 521.6,397.2 521,397.7 520.4,398.1 519.2,398.4 519,399 518.8,399.5 518.1,399.6 517.6,400 517,400.3 516.5,401.3 515.2,402.3 513.8,403.2 515.4,404 515,405.1 514.7,406.2 512.9,404.9 512,404.3 511.1,403.6 510.9,404.4 510.2,404.1 509.5,403.8 509.4,403 508.2,403.8 507,404.6 509,404.7 508.9,405.4 508.8,406.1 508.9,406.1 507.9,406.3 506.9,406.4 507.1,407 507.8,407.8 508.4,408.7 509.2,408 509.3,408.5 509.4,409.1 509.3,409.1 508.2,409.5 507,410 507.3,410.8 505.8,410.5 504.3,410.3 503.5,410.3 501.8,410.5 500.1,410.8 499,410.2 497.7,410 496.3,409.7 494.5,409.2 492.4,409.1 490.3,409.1 490.4,407.9 489,406.3 487.6,404.6 487.4,404.7 487.4,403.7 487.4,402.6 486.7,402.1 485.2,401.8 484.4,401.7 484.2,401.8 484,402 483.6,402 483.3,401.9 483,401.5 482.4,400.5 482.8,401 481.9,400.5 481,400.1 481.5,400.2 481.2,399 481,398.4 480.3,398.2 479.8,398 479.2,397.7 478.7,397.3 479.2,396 479.3,395.7 479.3,395.7 479.3,395.5 479.6,395.3 479.9,394.9 480.2,394.7 480.6,389.9 472.9,379.2 472.1,374.5 469.5,363.8 473.4,351.8 470.4,341 466.5,324.3 434.2,303.7 422.2,292.1 415,284.8 413.1,274.1 404.2,267.6 400.6,264.7 397.6,262.5 393.8,262.9 Z M 522.7,419.6 C 524,419.5 524.9,420.2 525,420.6 525,421 525.6,421.9 524,422.4 522.3,422.9 523.1,423.4 523.1,424.7 523.2,426 524.2,427.7 525,428.9 525.8,430 525.7,429.1 525.8,428.7 525.9,428.3 527.2,428.4 526.2,427.9 525.2,427.3 526,426.4 526,426.4 526,426.4 526.9,426.8 528.1,427.9 529.3,429 528.8,430 528.5,430.9 528.3,431.7 526.5,432.1 525.7,433.3 524.9,434.5 523.1,434.7 523.1,434.7 523.1,434.7 523.3,435.2 523.5,435.9 523.7,436.6 524.7,437.3 524.7,437.3 524.7,437.3 524.7,437.6 524.4,438.4 524.1,439.3 523.9,439.8 523.3,440.7 522.6,441.7 523.3,442 522.8,443.4 522.4,444.9 522.8,444.5 521.7,445.3 520.6,446.1 521.2,445.8 520.1,447.2 519,448.6 518.9,450.2 518.6,451.7 518.2,453.3 518.1,451.9 517.7,450.6 517.3,449.3 518,447.9 517.7,446.9 517.4,445.9 518,446 518.6,445.9 519.1,445.8 518.9,445.1 518.1,445 517.4,445 517.5,445.1 518.1,444.2 518.8,443.3 520.2,440.9 520.8,439.7 521.5,438.6 522.1,438.1 522.5,438.7 523,439.4 523.3,439.6 523.7,439 524.1,438.4 524.3,438.2 523.8,437.7 523.4,437.3 522.3,437.7 521.4,437.4 521,437.3 520.7,437.5 520.3,437.6 520.8,437.6 521.2,438.1 521.4,438.3 521.7,438.5 519.9,440.2 519.1,441.4 518.4,442.7 517.9,442.3 517.1,441.7 516.4,441.2 516.5,440.2 517,439.7 517.5,439.2 518,438.8 517,439.3 516,439.8 516.1,439.4 516.3,438.4 516.5,437.5 516.4,437.6 517.4,437 518.4,436.4 517.7,435.8 519.7,435.2 521.7,434.5 522.1,434.5 521.1,433.9 520.1,433.2 519.9,433 520.6,432.6 521.2,432.2 520.7,431.9 521,431 521.2,430.1 520.9,430.2 519,429.6 517.1,428.9 517.4,428.2 516.4,426.6 515.5,424.9 515.8,424.2 516.7,423.1 517.6,422 519.2,421.7 519.1,421.1 519.1,420.5 519,421.1 521.3,420 521.8,419.7 522.2,419.6 522.7,419.6 Z M 519.7,437.7 C 519.4,437.8 519.2,437.8 518.8,438 517.8,438.6 517.9,439.3 517.7,440.3 517.5,441.3 518.2,440.2 518.3,439.4 518.4,438.6 518.8,438.1 519.7,437.7 Z" />
  <path
     id="slovenia"
     style="fill:#d0d0e3;stroke:#ffffff;stroke-width:1.36794;stroke-miterlimit:4;stroke-dasharray:none"
     d="M 14.74,405 C 8.338,405 2.224,406.5 3.504,413.4 3.931,414.7 6.495,417 5.215,417.4 3.324,416.2 1.865,415.5 0.6844,415.1 V 439.8 C 2.01,439.2 4.18,437.9 8.055,435 8.607,434.7 6.746,433 7.059,432.3 7.372,431.6 9.422,431.8 10.33,431.4 11.23,431 11.38,431.7 12.04,432.4 12.37,432.7 13.81,433.2 14.02,432 14.02,432 14.45,432.3 15.3,432.4 16.16,432.5 16.72,432.4 16.72,432.4 16.88,431.5 16.7,430.7 15.73,430.4 15.19,429 14.25,427.8 13.88,426.1 13.68,425.2 18.29,421.8 19.14,422.1 20.69,422.7 23.8,424.4 26.96,426 27.21,425.9 27.53,425.8 27.81,425.9 27.8,425.8 27.82,425.8 27.81,425.7 18.85,418.4 16.44,405 14.74,405 Z" />
  <path
     id="serbia"
     style="fill:#d0d0e3;stroke:#ffffff;stroke-width:1.36794;stroke-miterlimit:4;stroke-dasharray:none"
     d="M 160,427 C 159.7,427 159.3,427.1 158.9,427.3 157.2,427.9 156.5,429 153.6,430.3 148.2,429.7 151.6,425.5 145.8,429 144.5,429.8 144.1,427.8 142.4,431.7 141.5,433.6 140,436.1 138.1,437.6 137.1,438.3 136.9,436 135,438.6 134.3,439.5 136.6,440.7 132,441.3 127.6,441.9 129.2,437.6 127.3,439.2 126.6,440.5 126.1,441.1 126.3,442.4 126.5,444.1 122.9,444.1 123.3,444.9 124.9,447.5 120.9,445.1 119.5,447.2 119.9,447.2 120.2,447.2 120.5,447.3 120.4,447.7 119.5,448.3 120,449.3 120.1,449.4 120.1,449.4 120.2,449.5 120.2,449.5 120.2,449.6 120.2,449.6 120.3,449.7 120.2,449.8 120.3,449.9 121.2,451.2 118.1,450.8 118.8,453 121.6,450.9 123.9,455.4 119.8,455 118.8,455.2 120.2,456.4 121.8,456.9 124.8,452.3 126.4,460.4 122.3,459.3 122.6,460.3 124.3,459.9 124.9,461.8 124.5,463 121.3,462.5 124.2,464.3 124.1,465.1 122.3,464.7 122.3,465.9 122.8,466.5 123.5,467.1 124.2,468.3 125.2,468 126.5,467 127.9,467.2 128.2,467.4 128.1,468.9 129.7,468.3 130.7,468.8 130.9,469.3 130.3,470.2 129.6,471.1 128.1,470.8 127.9,470.6 127.4,471.3 126.4,471.9 126.6,472.6 126.6,473.6 127.8,473.7 128.4,474.4 128.2,474.6 127.4,475.9 126.6,476.9 128.1,477.6 129.5,478.4 130.9,479.3 H 225.9 C 226,479.2 226,479.2 226.1,479.1 225.9,478 225.3,477.4 226.8,476.9 227.9,476.5 228.3,475.3 227.1,474.5 223.2,472.4 220.3,471.8 216,471.8 214.2,471.8 213.6,468.6 212.4,468.2 211.2,467.7 212,470.1 210.2,469.9 208.3,469.8 203.9,467.2 203.5,466.5 201.7,463.5 201,465.4 200.5,463.5 199.9,461 196.1,461.8 195.9,461.5 195.3,460.5 197.6,460 197.4,458.2 197.1,455.7 193.5,456.7 194.8,453.6 196,450.8 195,450.3 195.2,448.3 195.4,446.6 194.7,445.9 194.5,445.5 L 194,445.2 C 192.7,445.6 194.8,446.7 191.1,446.7 188.1,445 189.7,443.4 185.6,440.7 185.1,440.1 184.9,439.7 184.4,439.6 184,439.4 183.3,439.6 182.3,440 182,439.4 181.6,437.1 180.2,436.4 178.7,435.8 176.5,436.8 175.9,435.4 174.1,431 173,430.8 171.6,429.7 171.5,429.6 171.4,429.3 171.4,429.1 169.7,428.6 168.5,426.4 167.1,427.3 165.6,428.2 164.8,427.1 164.1,427 163.9,427 163.6,427.1 163.4,427.4 162,429.5 162.2,426.8 160,427 Z" />
  <path
     id="russia"
     style="fill:#d0d0e3;stroke:#ffffff;stroke-width:1.36794;stroke-miterlimit:4;stroke-dasharray:none"
     d="M 509.5,0.721 C 509.6,0.748 510,1.014 510,1.014 510.6,1.98 510.4,3.26 510.7,4.166 510.9,4.115 511.1,4.069 511.3,4.019 512.1,4.448 513.7,6.166 514.5,6.596 515.8,7.586 517.1,6.108 518.4,4.88 521.8,4.45 521.5,3.161 524.1,1.014 524.1,0.883 524.1,0.844 524.1,0.721 Z M 595.3,0.721 C 594.5,1.137 593.2,1.611 592.9,2.016 591.6,4.592 598.1,6.165 599.8,8.312 601.5,10.03 600.5,12.74 600.8,15.46 603,16.39 603.6,15.75 605.5,16.75 605.4,18.25 605.8,18.75 605.4,20.04 605.4,20.9 604.1,21.76 604.5,22.62 606.6,26.91 609.2,20.9 610.1,20.47 612.6,19.61 615.6,20.33 618.6,20.33 619.9,20.33 619.1,22.47 620.7,22.47 625.8,22.12 627.1,16.74 634.1,14.75 635,14.49 635.8,17.04 636.2,17.9 637.9,20.05 638.3,22.48 641.3,22.05 643,22.05 643.5,20.76 645.2,20.33 645.6,20.33 646.4,20.33 646.9,20.76 647.7,21.62 645.2,23.76 645.6,25.05 646,26.34 656.8,36.35 656.8,38.07 657.2,39.36 655.8,39.64 655.8,40.93 656.3,43.5 658,46.93 659.7,48.65 663.6,49.3 665.3,50.3 668.1,53.81 673.9,50.66 673.1,45.36 684.1,43.93 687,45.94 690.9,50.65 693.1,49.37 694.4,48.51 694.8,45.93 696.5,45.93 699.5,46.36 703.3,50.94 705,48.37 708.4,39.67 712.4,37.84 717.2,35.21 718.1,34.74 718.5,34.11 719.1,33.58 V 0.721 Z" />
  <path
     id="hungary"
     style="fill:#b0d0b0;stroke:#ffffff;stroke-width:1.36794;stroke-miterlimit:4;stroke-dasharray:none"
     d="M 197.4,284.8 C 193.1,284.8 190.6,290.9 186.3,291.3 179.1,292.6 169.7,284.8 163.3,293 160.7,296.4 162.4,308 157.7,310.2 156,310.6 153.3,308.9 151.6,309.7 144.8,314 154.6,317 143.9,318.8 140.5,319.2 132.9,309.7 129.4,315.8 128.2,317.9 130.3,321.8 128.6,323.5 123.9,328.2 110.7,325.2 104.7,329.5 99.16,332.9 105.1,338.9 106.8,341.5 108.5,344.5 72.3,350.9 67.18,350.1 59.08,348.4 53.11,337.2 45.43,336.4 43.73,335.9 43.02,336.2 41.42,336.9 39.81,337.6 41.41,341.7 41.03,344.2 40.55,347.4 36.33,344.9 39.04,347.5 41.74,350.1 40.48,349.5 41.59,352.1 42.71,354.7 41.04,355 39.6,356.8 38.17,358.6 34.02,355.8 33.06,357 32.11,358.1 29.37,357.2 25.39,355.2 21.41,353.3 21.44,357 19.84,358.2 18.25,359.5 17.78,361.2 19.84,362.8 21.91,364.4 26.71,362.7 27.66,365 28.62,367.2 25.7,367.1 26.81,369.7 27.92,372.2 27.39,371.9 25.96,374 24.53,376.1 19.08,372.1 19.56,374.8 20.04,377.6 18.59,377.3 19.7,379.6 20.82,381.8 22.38,381.2 21.27,382.8 20.15,384.4 18.61,386.5 19.56,388.7 20.52,391 24.09,388.4 22.97,389.7 21.86,391 21.34,392.4 21.98,395.6 22.61,398.8 21.79,398.1 19.56,397.3 17.33,396.5 13.79,397.2 11.88,401.6 10.24,403.9 9.186,405.3 9.041,405.4 8.843,405.5 8.673,405.7 8.473,405.7 8.609,405.7 8.759,405.8 8.899,405.7 L 12.88,405.2 C 13.51,405.1 14.1,405 14.73,405 14.94,405 15.1,405.2 15.3,405.6 17.02,408 19.83,419.3 27.81,425.8 27.82,425.8 27.79,425.9 27.81,425.9 28.05,425.9 28.33,426 28.66,426.2 29.41,426.5 30.36,426.5 30.36,426.5 L 32.64,430.1 33.49,429.5 33.92,430.3 36.05,430.2 36.48,430.6 H 37.47 C 38.61,432.5 39.85,433 39.75,435.6 41.1,436.2 41.66,437 42.59,437.6 L 43.44,437.5 43.58,438.5 C 46.83,439.4 49.75,440.3 50.98,441.5 48.97,443.7 51.28,441.9 52.11,442.8 56.69,447.5 56.44,448.1 55.81,449.2 57.34,449.6 57.12,450.8 59.22,450.1 58.68,451 57.93,450.7 58.08,451.7 58.89,451.1 59.65,450.5 60.5,450.1 61.04,451.2 59.83,451.4 61.35,451.8 61.45,452.2 60.76,452.1 60.36,452.1 58.78,453 62.99,454.2 63.2,451.9 64.52,452.2 66.37,453 67.89,452.2 69.48,453.4 70.92,454.2 71.87,455.8 74.75,457.7 77.81,457.6 80.97,460.7 81.5,459.3 84.87,457.8 86.66,459.2 L 89.78,459.5 C 91.29,458.3 92.97,457.2 95.33,459.1 96.1,459 96.97,459.7 97.6,459 L 99.31,459.4 C 99.57,459.4 101.9,456.9 101.9,459.5 102.5,459 104.6,460.7 103.6,458 104.6,457.7 106,458 105.1,456.1 L 106,456.5 C 106.7,456 108.3,455.9 108.1,454.8 108.8,454.4 110.4,453.2 109.7,452.4 110.5,450.5 110.6,451.1 111,448.7 L 112.5,448.2 C 114,448.9 115,449.9 116.9,449.9 117,449.2 116.3,448.4 117.1,447.8 117.4,448.2 119,448.5 118.8,447.2 118.8,447.2 119.1,447.2 119.2,447.2 119.2,447.1 119.3,447 119.3,446.9 120.7,445.4 124.5,447.8 123.3,444.9 122.9,444.1 126.5,444.1 126.3,442.5 126.1,441.2 126.6,440.5 127.3,439.2 129.3,437.6 127.6,441.9 132,441.4 136.6,440.7 134.3,439.5 135,438.6 137,436.1 137.2,438.4 138.1,437.6 140,436.1 141.5,433.7 142.4,431.8 144.1,427.8 144.5,429.8 145.8,429.1 151.6,425.5 148.2,429.8 153.6,430.3 156.5,429.1 157.2,427.9 158.9,427.3 162.4,426.1 161.8,429.9 163.4,427.5 164.3,426.1 165.1,428.6 167.1,427.3 168.6,426.5 169.7,428.6 171.4,429.2 171.3,428.9 171.2,428.5 171,428.1 172.4,423.1 187.2,424.5 190.4,422.5 190.7,422.2 190.9,422 191,421.8 191.8,420 185.4,417.9 193.1,416.6 194.6,416.4 196.1,417 197.5,417.6 198.3,417.9 199,418.2 199.7,418.3 200.4,418.5 201,418.5 201.7,418.3 203.2,417.8 204.3,416.7 205.2,415.5 209,409.9 207.6,399 209.3,395.1 210.2,393.9 212.3,393.9 213.2,392.6 L 217.9,377.6 C 218.3,376.5 218.9,375.5 219.3,374.5 219.5,374.1 219.7,373.6 219.9,373.1 220,372.6 220,372.1 220,371.5 220,371.3 219.9,371.1 219.7,371 219.3,370.7 218.5,370.7 218.1,370.4 217.9,370.3 217.9,370 217.9,369.8 218,368.9 218.3,367.4 218.9,365.7 220.5,360.5 223.5,353.1 225.1,350.5 225.5,350.1 226.3,350.1 227,350.1 227.3,350.1 227.6,349.9 227.8,349.8 228,349.7 228.1,349.5 228.1,349.2 230.2,341.1 227.2,335.1 236.6,326.1 237.4,325.2 238.1,324.6 238.9,324.3 239.3,324.2 239.8,324.1 240.2,324 241.9,323.8 243.8,323.9 246,323.5 246.6,323.4 247.1,323.3 247.7,323 251.2,321.4 252.3,317.4 254.1,314 254.4,313.5 254.8,313 255.1,312.5 255.5,312 255.8,311.5 256.2,311 251.1,306.7 258,307.6 252.4,303.7 251.6,303.3 250.3,302.4 249,302.4 247.3,302.9 246,305 244.3,304.6 241.7,302.9 241.5,299 238.9,297.3 237.6,296.4 235.5,298.6 234.2,298.2 227.5,295.6 232.7,290.6 224.3,290.6 224.2,290.6 224.2,290.7 224.1,290.7 222.9,293.2 217.9,293.4 214.5,294.3 212.7,294.7 211,296.9 209.8,296 201.7,293.4 208.1,285.3 197.4,284.8 Z" />
  <path
     id="slovakia"
     style="fill:#d0b0b0;stroke:#ffffff;stroke-width:1.36794;stroke-miterlimit:4;stroke-dasharray:none"
     d="M 189.7,236.6 C 187.3,236.7 185.3,237 183.7,237.4 182.4,237.4 182.4,240.2 181.2,240.6 179.5,241.4 176.9,235.4 175.6,241.4 175.6,242.3 178.2,242.3 177.8,243.2 176.5,245.3 174.3,247.9 171.8,247.9 168.4,247.9 166.2,243.2 162.8,242.7 161.1,242.3 160.3,244.9 158.6,245.3 156.9,245.3 155,243.6 153.3,244 147.3,245.3 142.2,258.6 141.8,259 140.1,259.9 138.4,256.5 136.7,256.9 134.5,257.3 130.7,260.8 130.7,258.6 130.7,257.8 133.3,249.6 130.3,248.3 128.6,247.5 126.4,249.6 124.3,249.2 123.5,248.7 125.2,247 124.7,246.2 124.3,245.7 122.6,247 122.2,246.6 120,244.5 120.1,240.4 117.5,238.7 113.2,235.7 107.7,257.8 100.9,252.2 99.58,250.9 101.7,247.9 100.4,246.6 99.16,245.3 96.17,247.5 95.32,246.2 88.07,249.6 77.84,255.2 74,262.1 74,262.5 70.59,275.8 70.59,275.8 69.31,277.5 66.33,276.6 65.05,278.4 64.19,279.6 65.47,281.8 64.62,283.1 51.82,299 37.76,277.9 31.79,303.3 32.22,308.8 25.82,314.8 28.38,319.1 32.22,325.6 36.48,331.1 41.6,336.7 42.45,336.3 43.73,335.9 45.43,336.3 53.11,337.2 59.07,348.3 67.18,350 72.3,350.9 108.5,344.5 106.8,341.4 105.1,338.9 99.15,332.9 104.7,329.4 110.7,325.1 123.9,328.1 128.6,323.4 130.3,321.7 128.1,317.8 129.4,315.7 132.8,309.7 140.5,319.1 143.9,318.7 154.6,317 144.8,314 151.6,309.7 153.3,308.8 156,310.5 157.7,310.1 162.4,308 160.7,296.4 163.3,293 169.7,284.8 179,292.5 186.3,291.2 190.5,290.8 193.1,284.8 197.4,284.8 208,285.2 201.6,293.4 209.7,296 211,296.8 212.7,294.7 214.4,294.2 217.8,293.4 221.6,293.5 223.9,290.9 224,290.9 224.1,290.6 224.2,290.5 224.1,290.5 224.1,290.5 223.9,290.5 223.9,287.1 221.1,283.4 222,280.4 222.4,277.4 226.2,276.5 227.5,273.5 228.8,270.9 228.3,267.9 228.8,264.9 229.2,260.8 232.5,255.1 232.4,250.9 231.7,250.6 230.9,250.6 230.1,250.3 226.2,249.9 225.1,249.6 221.2,248.3 218.3,247.5 215.3,247.5 212.7,245.7 211,244.9 211.4,241.9 210.2,240.6 206,237.4 196.7,236.2 189.7,236.6 Z" />
  <path
     id="ukraine"
     style="fill:#d0d0b0;stroke:#ffffff;stroke-width:1.36794;stroke-miterlimit:4;stroke-dasharray:none"
     d="M 524.2,0.671 C 524.1,0.794 524.1,0.833 524.1,0.964 521.5,3.111 521.8,4.401 518.4,4.83 517.1,6.058 515.9,7.536 514.6,6.546 513.7,6.117 512.2,4.398 511.3,3.969 506.6,5.257 503.3,6.263 497.1,7.975 492.6,9.208 494.1,12.41 492.4,13.27 489.8,14.56 488.6,12.27 485.6,13.13 481.8,14.92 481.4,15.37 482.9,18.56 481,20.56 479.7,24.96 477.6,30.58 476.6,33.73 475.9,41.74 475.9,45.17 475.9,49.89 490,59.91 479.3,62.06 473.8,63.99 473.9,57.19 467.2,54.47 458.5,54.97 459.2,59.44 457.3,58.34 455.8,57.47 454.7,59.48 453.6,61.19 451.5,61.62 451.2,58.47 448.6,58.9 441.8,60.62 446.2,66.34 439.1,68.2 435.7,69.06 433,58.22 429.4,56.76 426.7,55.62 423.7,61.41 419.1,64.77 417.3,66.92 419.8,71.93 417.2,71.5 411.9,70.06 414.8,66.63 410.7,65.63 405.5,64.27 406.1,69.88 403.4,69.35 399.1,68.5 402,64.63 398.3,64.49 394.8,64.34 396.5,67.78 394.7,69.49 392.2,72.5 388.8,69.49 386.6,69.92 384.5,69.92 385,72.5 385.6,75.79 385.2,76.65 384.2,78.14 382.9,78.07 378,76.78 386.9,71.85 377.1,71.5 373.4,71.64 373,72.64 372,74.21 370.4,74.79 367.5,76.07 366.6,75.22 365.7,74.36 366.2,72.93 365.3,72.5 361.8,72.21 362.6,67.92 359.6,67.34 347,71.35 337.2,66.99 327.2,70.35 325.9,69.92 322.8,67.63 321.5,67.63 315.6,67.2 319.1,68.06 312.7,68.92 311.7,68.92 309.3,70.59 306.8,71.35 304.2,72.11 301.5,71.95 300.5,72.5 297.7,74.05 293.3,71.92 291.1,72.35 285.6,74.07 284.3,76.79 279.2,78.93 275.8,80.22 268.5,80.51 265.1,82.23 264.2,84.23 257.9,103.3 253.2,101.8 251.9,101.4 252.5,99.25 251.6,99.25 249,98.82 248.5,98.96 246.3,99.82 240.5,101.6 240.7,105.7 240.7,105.7 240.7,105.7 245.4,111.1 245.3,112.4 246.2,115 245.2,117.3 246.1,119.4 249.9,127.6 261.5,137.3 268.4,142.5 269.7,143.7 261.1,142.3 263.3,146.6 263.7,147 270.1,153.6 270.1,157 268.8,172.5 266.8,164.2 259.1,170.6 255.1,177.5 229.6,219.8 230.6,224.6 231.4,229.3 235.8,234.6 237.1,238.9 237.5,241 234.7,242.6 236.4,244.3 239.7,251.6 239.8,242.9 243.9,252.8 243.5,252.4 242.4,251.3 241.8,251 239.7,250.6 239,251.6 236.8,251.6 235.5,251.2 233.7,251.3 232.4,250.9 232.8,255.2 229.3,260.6 228.9,264.9 228.4,267.9 228.9,270.9 227.6,273.5 226.3,276.5 222.5,277.4 222,280.4 221.2,283.4 224,287.1 224,290.5 232.9,290.4 227.4,295.5 234.3,298.1 235.5,298.5 237.7,296.4 239,297.2 241.5,299 241.8,302.8 244.3,304.5 246.1,305 247.3,302.8 249,302.4 250.3,302.4 251.6,303.3 252.5,303.7 258,307.5 251.2,306.7 256.3,311 256.9,307.3 261,311.1 263.1,302 263.5,301.1 263.5,299.8 264.4,299.8 269.3,299.9 272.9,305.4 276.5,305.1 277.3,305 278.9,302.8 279.7,302.4 284.7,304.7 286.3,302.2 292.7,303.7 297.3,301.8 301.9,302.9 306,303.5 309.9,302.3 310.6,299 314.4,298.5 320,298.8 321.4,302.7 325.2,303.5 329.5,304.5 330.5,306 332.6,308.8 339.9,305.9 340.1,302.8 343.4,295.8 350.2,288.9 368.7,288.5 375.6,282.7 379,276.8 377.2,274.4 379.8,270.4 382,267.8 384.6,266.8 388.1,265.9 L 388.5,264.6 390.2,260.8 V 259.9 L 390.6,258.2 394.9,259 C 394.5,258.2 393.6,257.3 393.6,256.5 393.6,256 406.8,253.5 407.7,253 411.7,246.6 414.9,248.9 416.2,245.7 417.5,242.8 422,243.6 427.7,244 436.2,249.7 437,245.7 440.8,248.7 442.1,249.6 441.4,253 442.6,253 445.6,253 448.6,250 452,249.6 453.7,249.2 451.6,253.5 452,255.2 452.9,258.6 455,252.2 455.9,253 457.2,254.8 457.2,256.9 458.4,258.2 460.1,259.9 457.9,252.6 460.4,251.8 474.9,247.9 468.8,255.3 479,259.6 483.3,261.3 480.3,252.7 484.2,254.9 494,261.3 487.7,270.8 490.7,280.2 493.7,284.4 500.5,285.7 504.3,289.9 508,294 503.1,283.2 509,286.7 516.7,291 506.5,302.4 512,299 515.8,299.3 512.9,304.5 514.6,306.3 517.1,308 527.8,308.4 530.4,310.6 L 534.8,325.1 C 534.8,326 532.2,326 532.6,326.9 533.5,329.9 543.3,331.1 543.3,331.6 540.7,333.3 537.7,333.7 535.6,335.4 534.8,336.3 535.2,337.2 534.8,338 532.6,340.2 531.5,330.9 528.1,330.9 525.5,330.9 528.4,338.2 525.8,337.7 524.1,337.3 518.7,333.3 518.7,333.3 517.9,334.6 517.7,337.9 516,338.3 515.1,338.7 513.7,334.7 513.3,335.6 511.2,337.3 512.7,340.3 511.5,342 511,342.5 510,342 509.6,341.6 509.6,340.7 510.5,340.3 510.5,339.4 510,337.3 508.8,336.2 507.9,334.4 506.2,331.4 501.9,338.4 499.8,341 498.9,350.9 505.6,350.5 506.5,353.9 506.9,356 505.1,357.8 505.1,359.9 505.1,362.1 506.9,362.8 506,364.5 505.2,366.2 502.2,366.8 500.5,368.5 496.7,371.5 501.9,374.9 499.8,377.9 498.1,380.1 495.5,381.4 494.3,383.1 493.3,387.7 493.8,391.8 493.8,391.8 V 394.5 L 495.2,397.1 C 493.8,397.8 492.7,398.5 491.7,399 L 491.5,397.4 486.4,396.5 484.6,399.1 483.7,401.7 C 484.1,401.8 484.4,402 484.9,402 485,402 484.9,401.8 485.2,401.8 485.4,401.9 485.4,402 485.6,402.1 486.6,402.4 487.4,402.8 487.4,403.7 487.4,404.7 487.6,404.6 489,406.3 490.4,407.9 490.3,409.1 492.4,409.1 494.5,409.2 496.3,409.7 497.7,410 499,410.2 500.1,410.8 501.8,410.5 503.4,410.3 504.3,410.3 505.8,410.5 507.3,410.8 507,410 508.2,409.5 509.3,409.1 509.4,409.1 509.3,408.5 509.2,408 508.4,408.7 507.8,407.8 507.1,407 506.9,406.4 507.9,406.3 508.9,406.1 508.8,406.1 508.9,405.4 509,404.7 507,404.6 508.2,403.8 509.4,403 509.5,403.8 510.2,404.1 510.9,404.4 511.1,403.6 512,404.3 512.9,404.9 514.7,406.2 515,405.1 515.3,404 513.8,403.2 515.1,402.3 516.5,401.3 517,400.3 517.6,400 518.1,399.6 518.8,399.5 519,399 519.2,398.4 520.3,398.1 521,397.7 521.6,397.2 522.3,396.7 522.4,396.1 522.5,395.5 522.7,395.4 523.1,395.1 523.5,394.8 523.8,393.7 525.1,393.8 526.4,393.9 526.5,393.9 526.9,393 527.4,392 527.7,392.4 528.2,392.7 528.8,392.9 529,392.9 529.4,392.5 529.7,392.1 530,392.5 530.6,392.1 531,391.9 531.1,391.8 531.2,391.8 531.4,391.8 531.6,391.8 532.2,392 533.3,392.2 535.2,392.3 536.6,392.5 538,392.8 540.1,394.1 540.7,394.7 541.4,395.2 542.3,397.3 543,398.1 543.7,398.9 543,399.5 543,399.5 543,399.5 542.3,400.2 543.6,401.4 544.1,401.9 544.3,402.2 544.4,402.4 545.3,402.4 545.2,401.9 545.3,401.5 545.3,401.2 546,401.7 546,401.7 546,401.7 545.9,401.2 545.9,400.8 545.8,400.6 545.4,400.3 544.9,400 545.2,400.2 545.4,400.2 545.9,400.5 546.9,401.2 547.3,400.7 547.3,400.7 547.3,400.7 547,400.3 546,399.2 545,398.2 545.7,397.4 545.7,396.4 545.7,395.4 546.3,395.4 545.9,394.8 545.4,394.2 545.8,393.8 545,392.7 544.2,391.6 544.6,389.7 544.9,387.8 545.1,385.9 544.1,386.5 543.6,386.9 543,387.4 543,387.1 543,386.2 543,385.8 543,385.7 543,385.7 543,385.7 543.1,385.8 542.9,385.9 542.5,386.2 542,386.7 541.7,387.5 541.5,388.3 541.1,388.4 540.3,387.5 539.5,386.6 539.7,388.2 539.7,388.8 539.8,389.4 538.9,388.5 538.5,387.8 L 534.3,388.1 C 535.3,387.7 537.6,387 538,386.8 539.4,382.7 535.8,377.6 535.3,373.4 535.3,371.6 532.3,367.3 534.1,368.2 539.1,369.4 537,378.1 540.9,376.8 553.7,371.6 541.6,376.1 541.6,370.5 541.6,369.6 545,369.3 545.9,368.9 547.1,368.5 543.7,365.1 545,364.2 546.8,362.6 549.5,363.6 550.7,362.3 551.9,361.1 550.9,358.9 552,358.5 553.7,358 554.8,362.1 555.7,360.3 559.1,352.6 562.9,343.2 565.5,334.6 565.9,332.9 562.5,331.2 563.3,329.4 563.8,328.1 566.3,327.7 567.2,326.4 570.2,320.8 561.6,321.7 565,317 574.4,305 587.6,306.8 587.6,303 588.4,300.5 587.8,298.5 587.8,298.5 587.8,298.5 585.7,296.8 585.7,293.5 587,292.6 588.7,295.8 589.3,295.2 590,294.7 589.7,291 591.3,290.4 593.5,291.9 591.9,296.4 590.3,302 591.6,303.3 594.3,300.7 596.5,300.3 598.6,299.8 600,300.3 602.6,299.8 608.1,299 600.6,289.5 600.6,289.5 601.4,285.7 604.1,285.1 599.9,281.9 598.8,281.1 596.6,278.8 596,277.4 595.6,276.2 593.9,271.2 590.6,268.9 584.9,264.9 589.5,266.5 592.5,267.5 594.4,268.1 595.1,271.6 595.6,271.6 596.6,271.7 599.4,275.9 600,276.8 602.1,276.8 604.7,282.2 604.7,283.1 604.9,291.9 606.7,296.4 609.7,298.4 612.6,296.6 612.7,296.4 613.5,296.8 614.5,297.4 615.1,299.8 616.1,299 617.1,298.2 618.5,294.8 619.3,295.8 619.9,296.6 620.7,297 621.5,297.4 625,295.7 628.7,293.3 632.4,290.8 634.1,289.5 628.6,293.8 626.9,295.5 624.7,298.1 628.2,301.8 624.3,302.3 617.1,303.5 608.8,304 601.6,304.8 598.7,305 592.5,305.5 593.8,306.8 597.7,308.8 597.9,311.4 601.3,312.3 602.6,312.7 599.1,308.2 601.3,307.8 606.3,306 606.7,308 609.7,307.5 610.5,307.5 613.7,306.2 615.1,308.8 612.4,315.2 611.4,311.2 605.7,315.6 607.5,320.8 609.4,316.5 618.8,316.8 L 619.3,319.3 C 619.3,319.3 615,320.1 609.8,320.3 604.6,320.5 601.8,320.1 599,319.3 596.2,318.5 595.7,315.6 595.7,315.6 L 593.9,314.6 C 593.9,314.6 593.7,315.8 594.3,317.4 594.9,319 597,321.2 600.9,322.4 604.7,323.6 615.7,322.5 623.3,322.1 L 625.3,317.7 C 625.6,317.8 625.8,317.8 626.2,317.8 627.4,318.3 626,319.7 627.3,320.1 630.3,321.4 633.4,321.9 636.8,320.6 637.6,320.4 638.4,320 639.1,319.6 645.1,319 650.3,318.4 654.5,317.1 659.9,315.4 659.6,315.3 653.7,316.1 647.9,317 651.8,317.7 644.8,318.6 642.6,318.8 641,319 639.5,319.1 641.6,317.7 643.5,315.8 645.6,314.8 648.6,313.1 652.5,314 655,312.7 655.9,312.3 654.2,310.1 655,309.7 655.9,308.8 657.6,311 658.4,310.6 660.6,309.7 660.9,307 661.4,304.5 664.5,307.6 670.8,312.7 673.8,310.1 677.5,307.4 672.5,306.7 675.1,305 675.4,304.5 675.8,304.2 676.2,304 676.2,304.1 676.2,304.1 676.2,304.1 676.6,303.9 677,303.9 677.3,303.9 677.5,303.9 677.8,304 677.8,304 677.8,304 678.1,305.8 678.7,308 679,309 679.4,310 679.8,311 679.9,311.1 679.9,311.1 679.9,311.2 680.4,312.2 680.9,313 681.4,313.5 681.4,313.5 681.5,313.5 681.5,313.6 681.5,313.6 681.5,313.6 681.5,313.6 681.5,313.6 681.5,313.5 681.5,313.5 682.3,313.3 684,312.8 685,312.7 685.2,312.7 685.5,312.7 685.6,312.8 685.8,312.8 685.9,312.9 685.8,313.1 685.8,313.4 685.4,313.9 684.4,314.8 684.5,315.9 685.1,318 681.3,317.1 680.6,318.5 680,319.4 679.4,319.9 679.1,320.2 678.7,320.3 678.4,320.4 678.1,320.5 677.7,320.5 677.3,320.4 676.1,321.3 675,322.4 673.8,323.8 672.6,325.2 671.3,327 669.9,329.1 669.6,329.3 669.3,329.2 669,329.1 669,329.1 669,329.1 669,329.1 668.7,328.9 668.3,328.7 668,328.6 667.4,328.2 666.8,327.9 666.1,328.3 666.1,328.3 666.1,328.3 666.1,328.3 666,328.5 666.1,328.7 666.3,328.9 666.4,329.1 666.7,329.4 667,329.6 667,329.6 667,329.6 667,329.6 667.2,329.8 667.5,330 667.7,330.2 667.8,330.4 667.9,330.6 667.8,330.9 667.8,330.9 663.1,334.6 660.1,336.9 660.1,336.9 660.1,336.9 660.1,336.9 660,337.7 659.3,338.6 658.6,339.5 657.9,340.4 657.3,341.2 657,341.8 657,341.9 657,341.9 657,341.9 657,341.9 657,341.9 657,341.9 657,342.1 657.1,342.3 657.2,342.4 657.3,342.6 657.5,342.8 657.7,342.9 658,343.2 658.3,343.4 658.3,343.6 656.8,344.6 655.2,346 653.6,347.4 652.1,348.9 650.6,350.5 649.5,352 649,352.8 648.5,353.5 648.2,354.2 647.8,354.9 647.6,355.6 647.6,356.2 647.5,356.8 647.6,357.3 647.9,357.8 648.2,358.3 648.6,358.6 649.3,358.9 650.7,359.4 651.7,359.8 652.6,360 653.5,360.2 654.1,360.3 654.6,360.3 655.2,360.3 655.6,360.1 655.9,359.9 656.5,359.4 656.8,358.6 657.4,357.7 657.6,357.3 658,356.9 658.4,356.4 658.4,356.4 658.4,356.4 658.4,356.3 658.5,356.3 658.5,356.3 658.5,356.3 658.9,355.9 659.5,355.4 660.2,355 661,354.6 661.9,354.2 663.1,353.9 665,354.4 666.8,355 668.4,355.6 668.4,355.6 668.4,355.6 668.4,355.6 670.1,356.2 671.7,356.8 673.1,357.4 676.1,358.5 678.7,359.7 681.2,360.5 682.8,359.1 684.5,358.1 686.1,357.8 686.7,357.6 687.3,357.6 687.8,357.6 688.4,357.6 689,357.7 689.5,357.8 690.1,358 690.7,358.2 691.3,358.5 692.5,359.1 693.7,360 695,361.3 696.4,362.8 697.5,364.1 698.3,365.2 700.8,368.4 700.7,370 700.1,371.1 699.8,371.5 699.5,371.9 699.2,372.2 698.9,372.6 698.6,373 698.3,373.4 698.1,373.8 697.9,374.3 697.8,374.9 697.8,374.9 697.8,374.9 697.8,375 697.8,375.5 697.8,376.2 698.1,377 698.1,377 698.1,377 698.1,377.1 698.1,377.2 698.2,377.2 698.2,377.3 699.2,380.1 700,381.8 700.5,382.8 700.7,383.3 700.9,383.7 701,383.9 701.1,384.1 701,384.3 700.9,384.4 700.3,385 699.7,385.7 699.1,386.4 698.1,387.6 697.2,388.8 696,390 696.1,390.3 696.3,390.6 696.6,390.9 696.9,391.2 697.2,391.4 697.6,391.6 698.3,391.9 699.2,392.1 700.1,392.3 700.1,392.3 700.1,392.3 700.1,392.3 700.1,392.3 700.1,392.3 700.1,392.3 700.1,392.3 700.1,392.3 700.1,392.3 702,392.5 704.1,392.4 705.8,392.5 706.4,392.7 707.7,393.2 708.7,393.7 710,394.2 711.4,394.8 712.7,395.2 713.2,395.4 713.5,395.4 713.9,395.4 713.9,395.4 713.9,395.4 713.9,395.4 714.2,395.4 714.5,395.4 714.7,395.3 714.7,395.3 714.8,395.2 714.8,395.2 715.2,395 715.6,394.8 715.9,394.5 716.8,393.7 717.6,392.8 719.2,393.4 V 393.4 305.5 305.4 C 718.3,307.1 717.2,308.6 716.7,308.7 716.7,308.7 716.7,308.7 716.7,308.7 716.5,308.7 716.4,308.6 716.4,308.3 716.4,307.5 716.4,306.9 716.6,306.1 716.8,306 716.9,305.9 717.9,305.4 718.2,305.2 718.3,305.1 718.5,304.9 718.6,304.9 718.8,304.8 718.9,304.7 718.9,304.7 718.9,304.7 718.9,304.7 719.6,304 719.1,303.5 718.4,303 718.6,302.6 718.7,302.2 718.7,301.9 718.7,301.6 718.6,301.2 718.4,300.9 718.2,300.6 718,300.4 717.6,300.1 717.3,299.9 716.9,299.7 716.4,299.5 715.6,299.2 715.1,299.3 714.7,299.4 714.7,299.3 714.6,299.2 714.6,299.1 714.5,299.4 714.5,299.7 714.4,300 714.5,299.9 714.6,300 714.6,300 714.8,300.2 715,300.5 715.4,300.8 715.9,301.2 716,301.4 716,301.6 716,301.8 715.8,301.8 715.5,301.9 715.3,302 715,302.2 714.8,302.3 714.8,302.4 714.8,302.4 714.7,302.4 714.5,302.6 714.4,302.9 714.6,303.4 714.7,303.8 714.7,304.1 714.7,304.4 714.7,304.4 714.7,304.4 714.7,304.4 714.7,304.4 714.7,304.4 714.7,304.4 714.6,304.6 714.5,304.8 714.3,304.8 714.2,304.8 714.2,304.8 714,304.8 713.9,304.8 713.9,304.8 713.9,304.8 713.7,304.8 713.4,304.6 713.2,304.4 713,304.2 712.8,303.9 712.6,303.4 712.6,303.4 712.6,303.4 712.6,303.4 712.4,303 712.1,302.7 711.9,302.4 L 707.9,300.8 707.5,299.1 C 706.9,298.6 706.4,298.5 706.1,298.5 705.7,298.5 705.4,298.7 705.2,299 705.1,299 705.1,299 705.1,299 704.8,299.3 704.6,299.6 704.3,299.8 703.9,300 703.5,300.1 702.9,300 702.4,299.9 701.7,299.8 701.1,299.8 700.5,299.8 699.9,299.9 699.5,300 699.1,300.1 698.9,300.3 699,300.5 699,300.7 699.4,301 700.2,301.3 700.6,301.4 700.9,301.5 701.2,301.7 700.7,301.9 701,302.5 701.2,303.3 701.4,304 701.5,305 700.7,306 700.4,306.2 700.2,306.4 700.1,306.4 699.9,306.5 699.8,306.4 699.7,306.3 699.7,306.3 699.7,306.3 699.7,306.3 699.7,306.3 699.7,306.3 699.7,306.3 699.5,306 699.4,305.6 699.2,305 699.1,304.4 698.8,303.8 698.4,303.3 698.2,303 697.9,302.8 697.6,302.6 697.6,302.6 697.6,302.6 697.6,302.6 697.3,302.4 696.9,302.3 696.4,302.3 695.2,301.6 694.2,301.2 693.3,300.9 693.3,300.9 693.3,300.9 693.3,300.9 692.5,300.7 691.9,300.6 691.4,300.7 691.2,300.8 691.1,300.8 690.9,301 690.8,301.1 690.8,301.2 690.7,301.4 690.7,301.4 690.7,301.4 690.7,301.4 690.7,301.8 690.9,302.2 691.3,302.8 691.3,302.8 691.3,302.8 691.3,302.8 691.6,303.4 691.7,303.6 691.6,303.7 691.4,303.9 691.1,303.9 690.8,303.9 690.4,303.9 690,303.9 689.7,304.2 689.6,304.3 689.4,304.4 689.3,304.7 689.2,304.9 689.2,305.2 689.1,305.5 688.4,304.5 687.7,303.6 687.2,302.6 686.6,301.6 686.2,300.7 686,299.7 686,299.4 685.9,299.3 685.8,299.2 685.7,299.1 685.6,299 685.4,299.1 685.2,299.1 684.8,299.4 684.5,299.7 684.5,299.7 684.5,299.7 684.5,299.7 684.5,299.8 684.5,299.8 684.4,299.8 683.8,300.5 683.3,301.3 683.3,301.3 L 679.3,298 C 679.3,298 679.3,297.9 679.2,297.9 682.9,293.9 681.6,296.5 684.6,296.1 687.6,295.7 688.2,296.9 692.3,298.1 696.3,299.3 696.9,297.5 695.3,295.7 693.6,293.9 697.9,294.7 694.5,289.8 694,289.1 694.1,288.7 694.5,288.7 695.2,288.6 696.9,289.3 698.5,290.7 702.4,293.5 703.4,298.3 702.4,293.5 702,291.9 701.2,290.7 702.8,290.7 704.4,290.7 704.6,291.6 707.6,292.2 708.4,292.4 708.8,292.4 709,292.4 708.4,292.5 707.7,292.6 707.9,294 708,295 707.8,296.1 707.8,297 708.7,296.9 710.3,296.9 710.7,298.4 711.3,300.4 711.7,299.8 712.3,298.8 712.8,297.9 713.8,299.4 714.3,298.1 714.3,298 714.3,298 714.3,298 714.3,297.9 714.3,297.9 714.3,297.8 714.4,297.7 714.5,297.5 714.6,297.4 714.6,297.3 714.7,297.3 714.7,297.2 714.7,297.2 714.7,297.1 714.7,297.1 714.8,296.9 714.8,296.7 714.9,296.4 714.9,295.7 715.1,295.1 715.3,294.5 715.3,294.5 715.3,294.4 715.3,294.4 715.7,292.8 716,291.5 714.7,290.4 714.4,290.1 714.2,289.7 714,289.2 714.5,288.3 715.1,287.2 716.3,287.8 717.5,288.4 718,288.3 719.1,288.2 719,287.8 719,287.5 719.1,287.4 719.1,287.4 719.2,287.4 719.2,287.3 V 33.8 C 718.6,34.27 718,34.75 717.3,35.16 712.4,37.79 708.4,39.63 705.1,48.32 703.4,50.9 699.5,46.32 696.5,45.89 694.8,45.89 694.4,48.46 693.1,49.32 691,50.61 687.1,45.89 684.2,43.89 673.1,45.32 673.9,50.61 668.1,53.76 665.3,50.25 663.6,49.25 659.7,48.61 658,46.89 656.3,43.46 655.9,40.88 655.9,39.59 657.3,39.31 656.9,38.02 656.9,36.3 646.1,26.29 645.6,25 645.2,23.71 647.8,21.56 646.9,20.71 646.5,20.28 645.6,20.28 645.2,20.28 643.5,20.71 643.1,21.99 641.4,21.99 638.4,22.42 638,20 636.3,17.85 635.8,16.99 635,14.43 634.1,14.7 627.1,16.69 625.8,22.07 620.8,22.43 619.1,22.43 619.9,20.28 618.6,20.28 615.6,20.28 612.7,19.57 610.1,20.43 609.2,20.86 606.7,26.86 604.6,22.57 604.1,21.71 605.4,20.85 605.4,19.99 605.8,18.7 605.4,18.2 605.6,16.7 603.6,15.7 603.1,16.35 600.9,15.42 600.6,12.7 601.6,9.979 599.9,8.261 598.2,6.114 591.6,4.541 592.9,1.965 593.2,1.54 594.1,1.108 594.9,0.67 Z M 708.9,290.7 C 709.9,290.8 709.8,291.1 709.8,291.8 709.7,292.1 709.4,292.2 709.2,292.2 709.2,292 708.8,291.4 708.9,290.7 Z M 719,291.1 C 717.7,291.6 718.2,292.3 718,293.2 718,293.7 718.5,294.1 719.2,294.4 V 291.1 C 719.1,291.1 719.1,291.1 719,291.1 Z" />
  <metadata
     id="metadata4591">
    <rdf:RDF>
      <cc:Work
         rdf:about="">
        <dc:title>Afterschool Geekeries map</dc:title>
      </cc:Work>
    </rdf:RDF>
  </metadata>
</svg>
