<?xml version="1.0" encoding="UTF-8" standalone="no"?>
<svg
   version="1.1"
   width="660"
   height="440"
   viewBox="1 39 660 440"
   id="map"
   sodipodi:docname="map_ukraine.svg"
   inkscape:version="1.1.2 (0a00cf5339, 2022-02-04)"
   xmlns:inkscape="http://www.inkscape.org/namespaces/inkscape"
   xmlns:sodipodi="http://sodipodi.sourceforge.net/DTD/sodipodi-0.dtd"
   xmlns="http://www.w3.org/2000/svg"
   xmlns:svg="http://www.w3.org/2000/svg"
   xmlns:rdf="http://www.w3.org/1999/02/22-rdf-syntax-ns#"
   xmlns:cc="http://creativecommons.org/ns#"
   xmlns:dc="http://purl.org/dc/elements/1.1/">
  <defs
     id="defs4779" />
  <sodipodi:namedview
     id="namedview4777"
     pagecolor="#ffffff"
     bordercolor="#666666"
     borderopacity="1.0"
     inkscape:pageshadow="2"
     inkscape:pageopacity="0.0"
     inkscape:pagecheckerboard="0"
     showgrid="false"
     inkscape:zoom="8.245"
     inkscape:cx="338.6"
     inkscape:cy="190.2"
     inkscape:window-width="1862"
     inkscape:window-height="1016"
     inkscape:window-x="58"
     inkscape:window-y="1107"
     inkscape:window-maximized="1"
     inkscape:current-layer="map"
     showguides="false" />
  <title
     id="title2">Afterschool Geekeries map: Ukraine</title>
  <path
     id="ukraine"
     style="fill:#FAFF7F;stroke:#ffffff;stroke-width:1.368;stroke-miterlimit:4;stroke-dasharray:none"
     d="M 524.2,0.671 C 524.1,0.794 524.1,0.833 524.1,0.964 521.5,3.111 521.8,4.401 518.4,4.83 517.1,6.058 515.9,7.536 514.6,6.546 513.7,6.117 512.2,4.398 511.3,3.969 506.6,5.257 503.3,6.263 497.1,7.975 492.6,9.208 494.1,12.41 492.4,13.27 489.8,14.56 488.6,12.27 485.6,13.13 481.8,14.92 481.4,15.37 482.9,18.56 481,20.56 479.7,24.96 477.6,30.58 476.6,33.73 475.9,41.74 475.9,45.17 475.9,49.89 490,59.91 479.3,62.06 473.8,63.99 473.9,57.19 467.2,54.47 458.5,54.97 459.2,59.44 457.3,58.34 455.8,57.47 454.7,59.48 453.6,61.19 451.5,61.62 451.2,58.47 448.6,58.9 441.8,60.62 446.2,66.34 439.1,68.2 435.7,69.06 433,58.22 429.4,56.76 426.7,55.62 423.7,61.41 419.1,64.77 417.3,66.92 419.8,71.93 417.2,71.5 411.9,70.06 414.8,66.63 410.7,65.63 405.5,64.27 406.1,69.88 403.4,69.35 399.1,68.5 402,64.63 398.3,64.49 394.8,64.34 396.5,67.78 394.7,69.49 392.2,72.5 388.8,69.49 386.6,69.92 384.5,69.92 385,72.5 385.6,75.79 385.2,76.65 384.2,78.14 382.9,78.07 378,76.78 386.9,71.85 377.1,71.5 373.4,71.64 373,72.64 372,74.21 370.4,74.79 367.5,76.07 366.6,75.22 365.7,74.36 366.2,72.93 365.3,72.5 361.8,72.21 362.6,67.92 359.6,67.34 347,71.35 337.2,66.99 327.2,70.35 325.9,69.92 322.8,67.63 321.5,67.63 315.6,67.2 319.1,68.06 312.7,68.92 311.7,68.92 309.3,70.59 306.8,71.35 304.2,72.11 301.5,71.95 300.5,72.5 297.7,74.05 293.3,71.92 291.1,72.35 285.6,74.07 284.3,76.79 279.2,78.93 275.8,80.22 268.5,80.51 265.1,82.23 264.2,84.23 257.9,103.3 253.2,101.8 251.9,101.4 252.5,99.25 251.6,99.25 249,98.82 248.5,98.96 246.3,99.82 240.5,101.6 240.7,105.7 240.7,105.7 240.7,105.7 245.4,111.1 245.3,112.4 246.2,115 245.2,117.3 246.1,119.4 249.9,127.6 261.5,137.3 268.4,142.5 269.7,143.7 261.1,142.3 263.3,146.6 263.7,147 270.1,153.6 270.1,157 268.8,172.5 266.8,164.2 259.1,170.6 255.1,177.5 229.6,219.8 230.6,224.6 231.4,229.3 235.8,234.6 237.1,238.9 237.5,241 234.7,242.6 236.4,244.3 239.7,251.6 239.8,242.9 243.9,252.8 243.5,252.4 242.4,251.3 241.8,251 239.7,250.6 239,251.6 236.8,251.6 235.5,251.2 233.7,251.3 232.4,250.9 232.8,255.2 229.3,260.6 228.9,264.9 228.4,267.9 228.9,270.9 227.6,273.5 226.3,276.5 222.5,277.4 222,280.4 221.2,283.4 224,287.1 224,290.5 232.9,290.4 227.4,295.5 234.3,298.1 235.5,298.5 237.7,296.4 239,297.2 241.5,299 241.8,302.8 244.3,304.5 246.1,305 247.3,302.8 249,302.4 250.3,302.4 251.6,303.3 252.5,303.7 258,307.5 251.2,306.7 256.3,311 256.9,307.3 261,311.1 263.1,302 263.5,301.1 263.5,299.8 264.4,299.8 269.3,299.9 272.9,305.4 276.5,305.1 277.3,305 278.9,302.8 279.7,302.4 284.7,304.7 286.3,302.2 292.7,303.7 297.3,301.8 301.9,302.9 306,303.5 309.9,302.3 310.6,299 314.4,298.5 320,298.8 321.4,302.7 325.2,303.5 329.5,304.5 330.5,306 332.6,308.8 339.9,305.9 340.1,302.8 343.4,295.8 350.2,288.9 368.7,288.5 375.6,282.7 379,276.8 377.2,274.4 379.8,270.4 382,267.8 384.6,266.8 388.1,265.9 L 388.5,264.6 390.2,260.8 V 259.9 L 390.6,258.2 394.9,259 C 394.5,258.2 393.6,257.3 393.6,256.5 393.6,256 406.8,253.5 407.7,253 411.7,246.6 414.9,248.9 416.2,245.7 417.5,242.8 422,243.6 427.7,244 436.2,249.7 437,245.7 440.8,248.7 442.1,249.6 441.4,253 442.6,253 445.6,253 448.6,250 452,249.6 453.7,249.2 451.6,253.5 452,255.2 452.9,258.6 455,252.2 455.9,253 457.2,254.8 457.2,256.9 458.4,258.2 460.1,259.9 457.9,252.6 460.4,251.8 474.9,247.9 468.8,255.3 479,259.6 483.3,261.3 480.3,252.7 484.2,254.9 494,261.3 487.7,270.8 490.7,280.2 493.7,284.4 500.5,285.7 504.3,289.9 508,294 503.1,283.2 509,286.7 516.7,291 506.5,302.4 512,299 515.8,299.3 512.9,304.5 514.6,306.3 517.1,308 527.8,308.4 530.4,310.6 L 534.8,325.1 C 534.8,326 532.2,326 532.6,326.9 533.5,329.9 543.3,331.1 543.3,331.6 540.7,333.3 537.7,333.7 535.6,335.4 534.8,336.3 535.2,337.2 534.8,338 532.6,340.2 531.5,330.9 528.1,330.9 525.5,330.9 528.4,338.2 525.8,337.7 524.1,337.3 518.7,333.3 518.7,333.3 517.9,334.6 517.7,337.9 516,338.3 515.1,338.7 513.7,334.7 513.3,335.6 511.2,337.3 512.7,340.3 511.5,342 511,342.5 510,342 509.6,341.6 509.6,340.7 510.5,340.3 510.5,339.4 510,337.3 508.8,336.2 507.9,334.4 506.2,331.4 501.9,338.4 499.8,341 498.9,350.9 505.6,350.5 506.5,353.9 506.9,356 505.1,357.8 505.1,359.9 505.1,362.1 506.9,362.8 506,364.5 505.2,366.2 502.2,366.8 500.5,368.5 496.7,371.5 501.9,374.9 499.8,377.9 498.1,380.1 495.5,381.4 494.3,383.1 493.3,387.7 493.8,391.8 493.8,391.8 V 394.5 L 495.2,397.1 C 493.8,397.8 492.7,398.5 491.7,399 L 491.5,397.4 486.4,396.5 484.6,399.1 483.7,401.7 C 484.1,401.8 484.4,402 484.9,402 485,402 484.9,401.8 485.2,401.8 485.4,401.9 485.4,402 485.6,402.1 486.6,402.4 487.4,402.8 487.4,403.7 487.4,404.7 487.6,404.6 489,406.3 490.4,407.9 490.3,409.1 492.4,409.1 494.5,409.2 496.3,409.7 497.7,410 499,410.2 500.1,410.8 501.8,410.5 503.4,410.3 504.3,410.3 505.8,410.5 507.3,410.8 507,410 508.2,409.5 509.3,409.1 509.4,409.1 509.3,408.5 509.2,408 508.4,408.7 507.8,407.8 507.1,407 506.9,406.4 507.9,406.3 508.9,406.1 508.8,406.1 508.9,405.4 509,404.7 507,404.6 508.2,403.8 509.4,403 509.5,403.8 510.2,404.1 510.9,404.4 511.1,403.6 512,404.3 512.9,404.9 514.7,406.2 515,405.1 515.3,404 513.8,403.2 515.1,402.3 516.5,401.3 517,400.3 517.6,400 518.1,399.6 518.8,399.5 519,399 519.2,398.4 520.3,398.1 521,397.7 521.6,397.2 522.3,396.7 522.4,396.1 522.5,395.5 522.7,395.4 523.1,395.1 523.5,394.8 523.8,393.7 525.1,393.8 526.4,393.9 526.5,393.9 526.9,393 527.4,392 527.7,392.4 528.2,392.7 528.8,392.9 529,392.9 529.4,392.5 529.7,392.1 530,392.5 530.6,392.1 531,391.9 531.1,391.8 531.2,391.8 531.4,391.8 531.6,391.8 532.2,392 533.3,392.2 535.2,392.3 536.6,392.5 538,392.8 540.1,394.1 540.7,394.7 541.4,395.2 542.3,397.3 543,398.1 543.7,398.9 543,399.5 543,399.5 543,399.5 542.3,400.2 543.6,401.4 544.1,401.9 544.3,402.2 544.4,402.4 545.3,402.4 545.2,401.9 545.3,401.5 545.3,401.2 546,401.7 546,401.7 546,401.7 545.9,401.2 545.9,400.8 545.8,400.6 545.4,400.3 544.9,400 545.2,400.2 545.4,400.2 545.9,400.5 546.9,401.2 547.3,400.7 547.3,400.7 547.3,400.7 547,400.3 546,399.2 545,398.2 545.7,397.4 545.7,396.4 545.7,395.4 546.3,395.4 545.9,394.8 545.4,394.2 545.8,393.8 545,392.7 544.2,391.6 544.6,389.7 544.9,387.8 545.1,385.9 544.1,386.5 543.6,386.9 543,387.4 543,387.1 543,386.2 V 385.7 C 543,385.7 543.1,385.8 542.9,385.9 542.5,386.2 542,386.7 541.7,387.5 541.5,388.3 541.1,388.4 540.3,387.5 539.5,386.6 539.7,388.2 539.7,388.8 539.8,389.4 538.9,388.5 538.5,387.8 L 534.3,388.1 C 535.3,387.7 537.6,387 538,386.8 539.4,382.7 535.8,377.6 535.3,373.4 535.3,371.6 532.3,367.3 534.1,368.2 539.1,369.4 537,378.1 540.9,376.8 553.7,371.6 541.6,376.1 541.6,370.5 541.6,369.6 545,369.3 545.9,368.9 547.1,368.5 543.7,365.1 545,364.2 546.8,362.6 549.5,363.6 550.7,362.3 551.9,361.1 550.9,358.9 552,358.5 553.7,358 554.8,362.1 555.7,360.3 559.1,352.6 562.9,343.2 565.5,334.6 565.9,332.9 562.5,331.2 563.3,329.4 563.8,328.1 566.3,327.7 567.2,326.4 570.2,320.8 561.6,321.7 565,317 574.4,305 587.6,306.8 587.6,303 588.4,300.5 587.8,298.5 587.8,298.5 587.8,298.5 585.7,296.8 585.7,293.5 587,292.6 588.7,295.8 589.3,295.2 590,294.7 589.7,291 591.3,290.4 593.5,291.9 591.9,296.4 590.3,302 591.6,303.3 594.3,300.7 596.5,300.3 598.6,299.8 600,300.3 602.6,299.8 608.1,299 600.6,289.5 600.6,289.5 601.4,285.7 604.1,285.1 599.9,281.9 598.8,281.1 596.6,278.8 596,277.4 595.6,276.2 593.9,271.2 590.6,268.9 584.9,264.9 589.5,266.5 592.5,267.5 594.4,268.1 595.1,271.6 595.6,271.6 596.6,271.7 599.4,275.9 600,276.8 602.1,276.8 604.7,282.2 604.7,283.1 604.9,291.9 606.7,296.4 609.7,298.4 612.6,296.6 612.7,296.4 613.5,296.8 614.5,297.4 615.1,299.8 616.1,299 617.1,298.2 618.5,294.8 619.3,295.8 619.9,296.6 620.7,297 621.5,297.4 625,295.7 628.7,293.3 632.4,290.8 634.1,289.5 628.6,293.8 626.9,295.5 624.7,298.1 628.2,301.8 624.3,302.3 617.1,303.5 608.8,304 601.6,304.8 598.7,305 592.5,305.5 593.8,306.8 597.7,308.8 597.9,311.4 601.3,312.3 602.6,312.7 599.1,308.2 601.3,307.8 606.3,306 606.7,308 609.7,307.5 610.5,307.5 613.7,306.2 615.1,308.8 612.4,315.2 611.4,311.2 605.7,315.6 607.5,320.8 609.4,316.5 618.8,316.8 L 619.3,319.3 C 619.3,319.3 615,320.1 609.8,320.3 604.6,320.5 601.8,320.1 599,319.3 596.2,318.5 595.7,315.6 595.7,315.6 L 593.9,314.6 C 593.9,314.6 593.7,315.8 594.3,317.4 594.9,319 597,321.2 600.9,322.4 604.7,323.6 615.7,322.5 623.3,322.1 L 625.3,317.7 C 625.6,317.8 625.8,317.8 626.2,317.8 627.4,318.3 626,319.7 627.3,320.1 630.3,321.4 633.4,321.9 636.8,320.6 637.6,320.4 638.4,320 639.1,319.6 645.1,319 650.3,318.4 654.5,317.1 659.9,315.4 659.6,315.3 653.7,316.1 647.9,317 651.8,317.7 644.8,318.6 642.6,318.8 641,319 639.5,319.1 641.6,317.7 643.5,315.8 645.6,314.8 648.6,313.1 652.5,314 655,312.7 655.9,312.3 654.2,310.1 655,309.7 655.9,308.8 657.6,311 658.4,310.6 660.6,309.7 660.9,307 661.4,304.5 664.5,307.6 670.8,312.7 673.8,310.1 677.5,307.4 672.5,306.7 675.1,305 675.4,304.5 675.8,304.2 676.2,304 V 304.1 C 676.6,303.9 677,303.9 677.3,303.9 677.5,303.9 677.8,304 677.8,304 677.8,304 678.1,305.8 678.7,308 679,309 679.4,310 679.8,311 679.9,311.1 679.9,311.1 679.9,311.2 680.4,312.2 680.9,313 681.4,313.5 681.4,313.5 681.5,313.5 681.5,313.6 V 313.6 313.5 C 682.3,313.3 684,312.8 685,312.7 685.2,312.7 685.5,312.7 685.6,312.8 685.8,312.8 685.9,312.9 685.8,313.1 685.8,313.4 685.4,313.9 684.4,314.8 684.5,315.9 685.1,318 681.3,317.1 680.6,318.5 680,319.4 679.4,319.9 679.1,320.2 678.7,320.3 678.4,320.4 678.1,320.5 677.7,320.5 677.3,320.4 676.1,321.3 675,322.4 673.8,323.8 672.6,325.2 671.3,327 669.9,329.1 669.6,329.3 669.3,329.2 669,329.1 V 329.1 C 668.7,328.9 668.3,328.7 668,328.6 667.4,328.2 666.8,327.9 666.1,328.3 V 328.3 C 666,328.5 666.1,328.7 666.3,328.9 666.4,329.1 666.7,329.4 667,329.6 V 329.6 C 667.2,329.8 667.5,330 667.7,330.2 667.8,330.4 667.9,330.6 667.8,330.9 667.8,330.9 663.1,334.6 660.1,336.9 V 336.9 C 660,337.7 659.3,338.6 658.6,339.5 657.9,340.4 657.3,341.2 657,341.8 V 341.9 341.9 C 657,342.1 657.1,342.3 657.2,342.4 657.3,342.6 657.5,342.8 657.7,342.9 658,343.2 658.3,343.4 658.3,343.6 656.8,344.6 655.2,346 653.6,347.4 652.1,348.9 650.6,350.5 649.5,352 649,352.8 648.5,353.5 648.2,354.2 647.8,354.9 647.6,355.6 647.6,356.2 647.5,356.8 647.6,357.3 647.9,357.8 648.2,358.3 648.6,358.6 649.3,358.9 650.7,359.4 651.7,359.8 652.6,360 653.5,360.2 654.1,360.3 654.6,360.3 655.2,360.3 655.6,360.1 655.9,359.9 656.5,359.4 656.8,358.6 657.4,357.7 657.6,357.3 658,356.9 658.4,356.4 V 356.3 H 658.5 C 658.9,355.9 659.5,355.4 660.2,355 661,354.6 661.9,354.2 663.1,353.9 665,354.4 666.8,355 668.4,355.6 V 355.6 C 670.1,356.2 671.7,356.8 673.1,357.4 676.1,358.5 678.7,359.7 681.2,360.5 682.8,359.1 684.5,358.1 686.1,357.8 686.7,357.6 687.3,357.6 687.8,357.6 688.4,357.6 689,357.7 689.5,357.8 690.1,358 690.7,358.2 691.3,358.5 692.5,359.1 693.7,360 695,361.3 696.4,362.8 697.5,364.1 698.3,365.2 700.8,368.4 700.7,370 700.1,371.1 699.8,371.5 699.5,371.9 699.2,372.2 L 698.3,373.4 C 698.1,373.8 697.9,374.3 697.8,374.9 V 375 C 697.8,375.5 697.8,376.2 698.1,377 V 377.1 C 698.1,377.2 698.2,377.2 698.2,377.3 699.2,380.1 700,381.8 700.5,382.8 700.7,383.3 700.9,383.7 701,383.9 701.1,384.1 701,384.3 700.9,384.4 700.3,385 699.7,385.7 699.1,386.4 698.1,387.6 697.2,388.8 696,390 696.1,390.3 696.3,390.6 696.6,390.9 696.9,391.2 697.2,391.4 697.6,391.6 698.3,391.9 699.2,392.1 700.1,392.3 V 392.3 392.3 392.3 C 702,392.5 704.1,392.4 705.8,392.5 706.4,392.7 707.7,393.2 708.7,393.7 710,394.2 711.4,394.8 712.7,395.2 713.2,395.4 713.5,395.4 713.9,395.4 V 395.4 C 714.2,395.4 714.5,395.4 714.7,395.3 L 714.8,395.2 C 715.2,395 715.6,394.8 715.9,394.5 716.8,393.7 717.6,392.8 719.2,393.4 V 393.4 305.5 305.4 C 718.3,307.1 717.2,308.6 716.7,308.7 V 308.7 C 716.5,308.7 716.4,308.6 716.4,308.3 716.4,307.5 716.4,306.9 716.6,306.1 716.8,306 716.9,305.9 717.9,305.4 718.2,305.2 718.3,305.1 718.5,304.9 718.6,304.9 718.8,304.8 718.9,304.7 V 304.7 C 719.6,304 719.1,303.5 718.4,303 718.6,302.6 718.7,302.2 718.7,301.9 718.7,301.6 718.6,301.2 718.4,300.9 718.2,300.6 718,300.4 717.6,300.1 717.3,299.9 716.9,299.7 716.4,299.5 715.6,299.2 715.1,299.3 714.7,299.4 714.7,299.3 714.6,299.2 714.6,299.1 714.5,299.4 714.5,299.7 714.4,300 714.5,299.9 714.6,300 714.6,300 714.8,300.2 715,300.5 715.4,300.8 715.9,301.2 716,301.4 716,301.6 716,301.8 715.8,301.8 715.5,301.9 715.3,302 715,302.2 714.8,302.3 714.8,302.4 714.8,302.4 714.7,302.4 714.5,302.6 714.4,302.9 714.6,303.4 714.7,303.8 714.7,304.1 714.7,304.4 V 304.4 304.4 C 714.6,304.6 714.5,304.8 714.3,304.8 H 714 713.9 C 713.7,304.8 713.4,304.6 713.2,304.4 713,304.2 712.8,303.9 712.6,303.4 V 303.4 C 712.4,303 712.1,302.7 711.9,302.4 L 707.9,300.8 707.5,299.1 C 706.9,298.6 706.4,298.5 706.1,298.5 705.7,298.5 705.4,298.7 705.2,299 H 705.1 C 704.8,299.3 704.6,299.6 704.3,299.8 703.9,300 703.5,300.1 702.9,300 702.4,299.9 701.7,299.8 701.1,299.8 700.5,299.8 699.9,299.9 699.5,300 699.1,300.1 698.9,300.3 699,300.5 699,300.7 699.4,301 700.2,301.3 700.6,301.4 700.9,301.5 701.2,301.7 700.7,301.9 701,302.5 701.2,303.3 701.4,304 701.5,305 700.7,306 700.4,306.2 700.2,306.4 700.1,306.4 699.9,306.5 699.8,306.4 699.7,306.3 V 306.3 306.3 C 699.5,306 699.4,305.6 699.2,305 699.1,304.4 698.8,303.8 698.4,303.3 698.2,303 697.9,302.8 697.6,302.6 V 302.6 C 697.3,302.4 696.9,302.3 696.4,302.3 695.2,301.6 694.2,301.2 693.3,300.9 V 300.9 C 692.5,300.7 691.9,300.6 691.4,300.7 691.2,300.8 691.1,300.8 690.9,301 690.8,301.1 690.8,301.2 690.7,301.4 V 301.4 C 690.7,301.8 690.9,302.2 691.3,302.8 V 302.8 C 691.6,303.4 691.7,303.6 691.6,303.7 691.4,303.9 691.1,303.9 690.8,303.9 690.4,303.9 690,303.9 689.7,304.2 689.6,304.3 689.4,304.4 689.3,304.7 689.2,304.9 689.2,305.2 689.1,305.5 688.4,304.5 687.7,303.6 687.2,302.6 686.6,301.6 686.2,300.7 686,299.7 686,299.4 685.9,299.3 685.8,299.2 685.7,299.1 685.6,299 685.4,299.1 685.2,299.1 684.8,299.4 684.5,299.7 V 299.7 C 684.5,299.8 684.5,299.8 684.4,299.8 683.8,300.5 683.3,301.3 683.3,301.3 L 679.3,298 C 679.3,298 679.3,297.9 679.2,297.9 682.9,293.9 681.6,296.5 684.6,296.1 687.6,295.7 688.2,296.9 692.3,298.1 696.3,299.3 696.9,297.5 695.3,295.7 693.6,293.9 697.9,294.7 694.5,289.8 694,289.1 694.1,288.7 694.5,288.7 695.2,288.6 696.9,289.3 698.5,290.7 702.4,293.5 703.4,298.3 702.4,293.5 702,291.9 701.2,290.7 702.8,290.7 704.4,290.7 704.6,291.6 707.6,292.2 708.4,292.4 708.8,292.4 709,292.4 708.4,292.5 707.7,292.6 707.9,294 708,295 707.8,296.1 707.8,297 708.7,296.9 710.3,296.9 710.7,298.4 711.3,300.4 711.7,299.8 712.3,298.8 712.8,297.9 713.8,299.4 714.3,298.1 V 298 297.8 C 714.4,297.7 714.5,297.5 714.6,297.4 714.6,297.3 714.7,297.3 714.7,297.2 V 297.1 C 714.8,296.9 714.8,296.7 714.9,296.4 714.9,295.7 715.1,295.1 715.3,294.5 V 294.4 C 715.7,292.8 716,291.5 714.7,290.4 714.4,290.1 714.2,289.7 714,289.2 714.5,288.3 715.1,287.2 716.3,287.8 717.5,288.4 718,288.3 719.1,288.2 719,287.8 719,287.5 719.1,287.4 719.1,287.4 719.2,287.4 719.2,287.3 V 33.8 C 718.6,34.27 718,34.75 717.3,35.16 712.4,37.79 708.4,39.63 705.1,48.32 703.4,50.9 699.5,46.32 696.5,45.89 694.8,45.89 694.4,48.46 693.1,49.32 691,50.61 687.1,45.89 684.2,43.89 673.1,45.32 673.9,50.61 668.1,53.76 665.3,50.25 663.4,48.32 663.4,48.32 670.1,45.97 664.1,43.07 663.7,40.49 663.7,39.2 657.3,39.31 656.9,38.02 656.9,36.3 646.1,26.29 645.6,25 645.2,23.71 647.8,21.56 646.9,20.71 646.5,20.28 645.6,20.28 645.2,20.28 643.5,20.71 643.1,21.99 641.4,21.99 638.4,22.42 638,20 636.3,17.85 635.8,16.99 635,14.43 634.1,14.7 627.1,16.69 625.8,22.07 620.8,22.43 619.1,22.43 619.9,20.28 618.6,20.28 615.6,20.28 612.7,19.57 610.1,20.43 609.2,20.86 606.7,26.86 604.6,22.57 604.1,21.71 605.4,20.85 605.4,19.99 605.8,18.7 605.4,18.2 605.6,16.7 603.6,15.7 603.1,16.35 600.9,15.42 600.6,12.7 601.6,9.979 599.9,8.261 598.2,6.114 591.6,4.541 592.9,1.965 593.2,1.54 594.1,1.108 594.9,0.67 Z M 708.9,290.7 C 709.9,290.8 709.8,291.1 709.8,291.8 709.7,292.1 709.4,292.2 709.2,292.2 709.2,292 708.8,291.4 708.9,290.7 Z M 719,291.1 C 717.7,291.6 718.2,292.3 718,293.2 718,293.7 718.5,294.1 719.2,294.4 V 291.1 Z"
     sodipodi:nodetypes="cssscssscssscscssssssssssscscscccsssssscsssccsssccssccsscssscssssccsssccccscccsccccccscscssssssssscsscsccscsssscsssssscssssscccccccccsssssssssssssssssssssssssssssssssscssscssscssssssscsssscccsssssssssssssscssccsscssssssscssscssssssssccccssccssccssscssscsssscssssscssscscsssssssssssssssssssscsssscssssssssssssssscsssssscssssssssssssssssssssssccssssssssssccssssssssssssssssscssssssscsscssssscssssssssssssssscsssssssssssssssssssssssssscccssssssssssssssscssssssssssscscssssccssssssssssssssccssccssssssccs" />
  <metadata
     id="metadata4861">
    <rdf:RDF>
      <cc:Work
         rdf:about="">
        <dc:title>Afterschool Geekeries map: Ukraine</dc:title>
      </cc:Work>
    </rdf:RDF>
  </metadata>
  <g
     id="g1134"
     style="fill:#222222;fill-opacity:1;stroke:#ff88dc;stroke-width:0;stroke-miterlimit:4;stroke-dasharray:none;stroke-opacity:1"
     transform="matrix(0.6891,-0.006,0.006,0.6891,119.8,59.89)">
    <path
       d="M 300.2,234.6 Q 296.2,236.1 293.1,234.7 289.9,233.3 288.2,228.9 L 284.1,217.9 287.8,216.5 291.9,227.5 Q 293,230.5 294.8,231.4 296.7,232.3 299.1,231.4 301.4,230.5 302.2,228.6 303,226.7 301.9,223.7 L 297.8,212.8 301.4,211.5 305.5,222.5 Q 307.1,226.8 305.7,230 304.2,233.1 300.2,234.6 Z"
       style="font-weight:600;font-size:30px;line-height:1.25;font-family:Montserrat;-inkscape-font-specification:'Montserrat Semi-Bold';fill:#222222;fill-opacity:1;stroke:#ff88dc;stroke-width:0;stroke-miterlimit:4;stroke-dasharray:none;stroke-opacity:1"
       id="path59296" />
    <path
       id="path59298"
       style="font-weight:600;font-size:30px;line-height:1.25;font-family:Montserrat;-inkscape-font-specification:'Montserrat Semi-Bold';fill:#222222;fill-opacity:1;stroke:#ff88dc;stroke-width:0;stroke-miterlimit:4;stroke-dasharray:none;stroke-opacity:1"
       d="M 323.9,203 319.9,204.5 314,218.3 310.2,208.2 306.5,209.5 313.9,229.2 317.5,227.8 315.6,222.8 317.6,218.4 327.5,224.1 331.8,222.5 319,214.9 Z" />
    <path
       id="path59300"
       style="font-weight:600;font-size:30px;line-height:1.25;font-family:Montserrat;-inkscape-font-specification:'Montserrat Semi-Bold';fill:#222222;fill-opacity:1;stroke:#ff88dc;stroke-width:0;stroke-miterlimit:4;stroke-dasharray:none;stroke-opacity:1"
       d="M 339.3,198 C 338,198 336.6,198.3 335.1,198.9 L 327,201.9 334.4,221.6 338,220.2 335.9,214.5 340.3,212.8 C 340.6,212.7 340.8,212.6 341.1,212.5 L 347.2,216.8 351.1,215.3 344.3,210.5 C 344.3,210.5 344.4,210.4 344.5,210.3 345.5,209.3 346.2,208.2 346.5,206.9 346.8,205.6 346.6,204.2 346.1,202.8 345.5,201.3 344.7,200.2 343.7,199.4 342.6,198.6 341.4,198.1 339.9,198 339.7,198 339.5,198 339.3,198 Z M 338.8,201.5 C 339.3,201.5 339.7,201.5 340.1,201.7 341.2,202.1 341.9,202.9 342.4,204.2 342.9,205.3 342.8,206.4 342.3,207.5 341.7,208.5 340.6,209.3 339,209.9 L 334.8,211.5 331.9,203.6 336.1,202 C 337.1,201.6 338,201.4 338.8,201.5 Z" />
    <path
       id="path59302"
       style="font-weight:600;font-size:30px;line-height:1.25;font-family:Montserrat;-inkscape-font-specification:'Montserrat Semi-Bold';fill:#222222;fill-opacity:1;stroke:#ff88dc;stroke-width:0;stroke-miterlimit:4;stroke-dasharray:none;stroke-opacity:1"
       d="M 357.2,190.6 353.6,192 352.1,214.9 355.8,213.5 356.1,208.2 365.9,204.5 369.6,208.4 373.4,207 Z M 356.7,194.9 363.7,202.2 356.2,205 Z" />
    <path
       d="M 376,206 368.6,186.4 372.3,185 379.6,204.7 Z"
       style="font-weight:600;font-size:30px;line-height:1.25;font-family:Montserrat;-inkscape-font-specification:'Montserrat Semi-Bold';fill:#222222;fill-opacity:1;stroke:#ff88dc;stroke-width:0;stroke-miterlimit:4;stroke-dasharray:none;stroke-opacity:1"
       id="path59304" />
    <path
       id="path59306"
       style="font-weight:600;font-size:30px;line-height:1.25;font-family:Montserrat;-inkscape-font-specification:'Montserrat Semi-Bold';fill:#222222;fill-opacity:1;stroke:#ff88dc;stroke-width:0;stroke-miterlimit:4;stroke-dasharray:none;stroke-opacity:1"
       d="M 395.1,176.5 391.4,177.9 396.4,191.2 380.5,181.9 377.5,183 384.9,202.7 388.5,201.4 383.6,188 399.4,197.3 402.4,196.2 Z" />
    <path
       id="path59308"
       style="font-weight:600;font-size:30px;line-height:1.25;font-family:Montserrat;-inkscape-font-specification:'Montserrat Semi-Bold';fill:#222222;fill-opacity:1;stroke:#ff88dc;stroke-width:0;stroke-miterlimit:4;stroke-dasharray:none;stroke-opacity:1"
       d="M 414.7,169.2 400.3,174.5 407.6,194.2 422.4,188.7 421.3,185.6 410.1,189.8 408.1,184.3 417.7,180.8 416.6,177.8 407,181.3 405.1,176.3 415.9,172.3 Z" />
  </g>
</svg>
