<?xml version="1.0" encoding="UTF-8" standalone="no"?>
<svg
   version="1.1"
   width="660"
   height="440"
   viewBox="1 39 660 440"
   id="map"
   sodipodi:docname="map_hungary.svg"
   inkscape:version="1.1.2 (0a00cf5339, 2022-02-04)"
   xmlns:inkscape="http://www.inkscape.org/namespaces/inkscape"
   xmlns:sodipodi="http://sodipodi.sourceforge.net/DTD/sodipodi-0.dtd"
   xmlns="http://www.w3.org/2000/svg"
   xmlns:svg="http://www.w3.org/2000/svg"
   xmlns:rdf="http://www.w3.org/1999/02/22-rdf-syntax-ns#"
   xmlns:cc="http://creativecommons.org/ns#"
   xmlns:dc="http://purl.org/dc/elements/1.1/">
  <defs
     id="defs4023" />
  <sodipodi:namedview
     id="namedview4021"
     pagecolor="#ffffff"
     bordercolor="#666666"
     borderopacity="1.0"
     inkscape:pageshadow="2"
     inkscape:pageopacity="0.0"
     inkscape:pagecheckerboard="0"
     showgrid="false"
     inkscape:zoom="2.828"
     inkscape:cx="190.4"
     inkscape:cy="282.7"
     inkscape:window-width="1862"
     inkscape:window-height="1016"
     inkscape:window-x="58"
     inkscape:window-y="1107"
     inkscape:window-maximized="1"
     inkscape:current-layer="map" />
  <title
     id="title2">Afterschool Geekeries map</title>
  <path
     id="hungary"
     style="fill:#FAFF7F;stroke:#ffffff;stroke-width:1.36794;stroke-miterlimit:4;stroke-dasharray:none"
     d="M 197.4,284.8 C 193.1,284.8 190.6,290.9 186.3,291.3 179.1,292.6 169.7,284.8 163.3,293 160.7,296.4 162.4,308 157.7,310.2 156,310.6 153.3,308.9 151.6,309.7 144.8,314 154.6,317 143.9,318.8 140.5,319.2 132.9,309.7 129.4,315.8 128.2,317.9 130.3,321.8 128.6,323.5 123.9,328.2 110.7,325.2 104.7,329.5 99.16,332.9 105.1,338.9 106.8,341.5 108.5,344.5 72.3,350.9 67.18,350.1 59.08,348.4 53.11,337.2 45.43,336.4 43.73,335.9 43.02,336.2 41.42,336.9 39.81,337.6 41.41,341.7 41.03,344.2 40.55,347.4 36.33,344.9 39.04,347.5 41.74,350.1 40.48,349.5 41.59,352.1 42.71,354.7 41.04,355 39.6,356.8 38.17,358.6 34.02,355.8 33.06,357 32.11,358.1 29.37,357.2 25.39,355.2 21.41,353.3 21.44,357 19.84,358.2 18.25,359.5 17.78,361.2 19.84,362.8 21.91,364.4 26.71,362.7 27.66,365 28.62,367.2 25.7,367.1 26.81,369.7 27.92,372.2 27.39,371.9 25.96,374 24.53,376.1 19.08,372.1 19.56,374.8 20.04,377.6 18.59,377.3 19.7,379.6 20.82,381.8 22.38,381.2 21.27,382.8 20.15,384.4 18.61,386.5 19.56,388.7 20.52,391 24.09,388.4 22.97,389.7 21.86,391 21.34,392.4 21.98,395.6 22.61,398.8 21.79,398.1 19.56,397.3 17.33,396.5 13.79,397.2 11.88,401.6 10.24,403.9 9.186,405.3 9.041,405.4 8.843,405.5 8.673,405.7 8.473,405.7 8.609,405.7 8.759,405.8 8.899,405.7 L 12.88,405.2 C 13.51,405.1 14.1,405 14.73,405 14.94,405 15.1,405.2 15.3,405.6 17.02,408 19.83,419.3 27.81,425.8 27.82,425.8 27.79,425.9 27.81,425.9 28.05,425.9 28.33,426 28.66,426.2 29.41,426.5 30.36,426.5 30.36,426.5 L 32.64,430.1 33.49,429.5 33.92,430.3 36.05,430.2 36.48,430.6 H 37.47 C 38.61,432.5 39.85,433 39.75,435.6 41.1,436.2 41.66,437 42.59,437.6 L 43.44,437.5 43.58,438.5 C 46.83,439.4 49.75,440.3 50.98,441.5 48.97,443.7 51.28,441.9 52.11,442.8 56.69,447.5 56.44,448.1 55.81,449.2 57.34,449.6 57.12,450.8 59.22,450.1 58.68,451 57.93,450.7 58.08,451.7 58.89,451.1 59.65,450.5 60.5,450.1 61.04,451.2 59.83,451.4 61.35,451.8 61.45,452.2 60.76,452.1 60.36,452.1 58.78,453 62.99,454.2 63.2,451.9 64.52,452.2 66.37,453 67.89,452.2 69.48,453.4 70.92,454.2 71.87,455.8 74.75,457.7 77.81,457.6 80.97,460.7 81.5,459.3 84.87,457.8 86.66,459.2 L 89.78,459.5 C 91.29,458.3 92.97,457.2 95.33,459.1 96.1,459 96.97,459.7 97.6,459 L 99.31,459.4 C 99.57,459.4 101.9,456.9 101.9,459.5 102.5,459 104.6,460.7 103.6,458 104.6,457.7 106,458 105.1,456.1 L 106,456.5 C 106.7,456 108.3,455.9 108.1,454.8 108.8,454.4 110.4,453.2 109.7,452.4 110.5,450.5 110.6,451.1 111,448.7 L 112.5,448.2 C 114,448.9 115,449.9 116.9,449.9 117,449.2 116.3,448.4 117.1,447.8 117.4,448.2 119,448.5 118.8,447.2 118.8,447.2 119.1,447.2 119.2,447.2 119.2,447.1 119.3,447 119.3,446.9 120.7,445.4 124.5,447.8 123.3,444.9 122.9,444.1 126.5,444.1 126.3,442.5 126.1,441.2 126.6,440.5 127.3,439.2 129.3,437.6 127.6,441.9 132,441.4 136.6,440.7 134.3,439.5 135,438.6 137,436.1 137.2,438.4 138.1,437.6 140,436.1 141.5,433.7 142.4,431.8 144.1,427.8 144.5,429.8 145.8,429.1 151.6,425.5 148.2,429.8 153.6,430.3 156.5,429.1 157.2,427.9 158.9,427.3 162.4,426.1 161.8,429.9 163.4,427.5 164.3,426.1 165.1,428.6 167.1,427.3 168.6,426.5 169.7,428.6 171.4,429.2 171.3,428.9 171.2,428.5 171,428.1 172.4,423.1 187.2,424.5 190.4,422.5 190.7,422.2 190.9,422 191,421.8 191.8,420 185.4,417.9 193.1,416.6 194.6,416.4 196.1,417 197.5,417.6 198.3,417.9 199,418.2 199.7,418.3 200.4,418.5 201,418.5 201.7,418.3 203.2,417.8 204.3,416.7 205.2,415.5 209,409.9 207.6,399 209.3,395.1 210.2,393.9 212.3,393.9 213.2,392.6 L 217.9,377.6 C 218.3,376.5 218.9,375.5 219.3,374.5 219.5,374.1 219.7,373.6 219.9,373.1 220,372.6 220,372.1 220,371.5 220,371.3 219.9,371.1 219.7,371 219.3,370.7 218.5,370.7 218.1,370.4 217.9,370.3 217.9,370 217.9,369.8 218,368.9 218.3,367.4 218.9,365.7 220.5,360.5 223.5,353.1 225.1,350.5 225.5,350.1 226.3,350.1 227,350.1 227.3,350.1 227.6,349.9 227.8,349.8 228,349.7 228.1,349.5 228.1,349.2 230.2,341.1 227.2,335.1 236.6,326.1 237.4,325.2 238.1,324.6 238.9,324.3 239.3,324.2 239.8,324.1 240.2,324 241.9,323.8 243.8,323.9 246,323.5 246.6,323.4 247.1,323.3 247.7,323 251.2,321.4 252.3,317.4 254.1,314 254.4,313.5 254.8,313 255.1,312.5 255.5,312 255.8,311.5 256.2,311 251.1,306.7 258,307.6 252.4,303.7 251.6,303.3 250.3,302.4 249,302.4 247.3,302.9 246,305 244.3,304.6 241.7,302.9 241.5,299 238.9,297.3 237.6,296.4 235.5,298.6 234.2,298.2 227.5,295.6 232.7,290.6 224.3,290.6 224.2,290.6 224.2,290.7 224.1,290.7 222.9,293.2 217.9,293.4 214.5,294.3 212.7,294.7 211,296.9 209.8,296 201.7,293.4 208.1,285.3 197.4,284.8 Z" />
  <metadata
     id="metadata4105">
    <rdf:RDF>
      <cc:Work
         rdf:about="">
        <dc:title>Afterschool Geekeries map</dc:title>
      </cc:Work>
    </rdf:RDF>
  </metadata>
  <path
     id="path40536"
     style="font-weight:600;font-size:30px;line-height:1.25;font-family:Montserrat;-inkscape-font-specification:'Montserrat Semi-Bold';fill:#222222;fill-opacity:1;stroke:#222222;stroke-width:0;stroke-miterlimit:4;stroke-dasharray:none;stroke-opacity:1"
     d="M 178.8,352.7 176.2,353.6 174.4,361.7 168.2,356.3 165.4,357.2 173.8,364.3 175.5,369.2 178,368.4 176.4,363.4 Z M 161.5,359.1 C 160.7,359 159.8,359.1 158.9,359.4 L 153.3,361.3 158,375.2 160.5,374.3 159.2,370.3 162.3,369.3 C 162.5,369.2 162.6,369.1 162.7,369 L 167,372.1 169.7,371.2 165,367.7 C 165,367.6 165.1,367.7 165.1,367.6 165.9,367 166.4,366.2 166.6,365.3 166.9,364.3 166.8,363.5 166.4,362.5 166.1,361.4 165.6,360.6 164.9,360 164,359.4 163.2,359.1 162.2,359 162,359 161.8,359 161.5,359.1 Z M 161.1,361.3 C 161.5,361.4 162,361.5 162.3,361.5 163.1,361.8 163.6,362.4 163.9,363.2 164.2,364.2 164.1,365 163.7,365.6 163.3,366.3 162.5,366.9 161.5,367.2 L 158.5,368.2 156.6,362.6 159.6,361.6 C 160.1,361.5 160.6,361.4 161.1,361.3 Z M 145.4,364.1 142.8,365 141.3,380.8 143.9,379.9 144.2,376.3 151,373.9 153.5,376.7 156.2,375.8 Z M 144.9,367.2 149.5,372.3 144.4,374.1 Z M 132.8,368.7 C 131.9,368.6 130.8,368.8 129.8,369.2 128.7,369.5 127.7,370.1 127,370.8 126.3,371.4 125.7,372.1 125.3,373 124.8,373.8 124.5,374.8 124.4,375.8 124.4,376.8 124.4,377.8 124.8,378.8 125.1,379.8 125.7,380.6 126.3,381.3 127,382.2 127.8,382.7 128.7,383.2 129.5,383.5 130.5,383.7 131.4,383.8 132.5,383.9 133.5,383.7 134.5,383.3 135.6,383 136.4,382.6 137.3,381.8 138.2,381.3 138.9,380.6 139.4,379.8 L 137.5,374.3 135.1,375.2 136.5,379.5 C 136.4,379.6 136.1,379.9 135.8,380 135.3,380.4 134.7,380.8 134,381.1 133.2,381.2 132.5,381.4 131.9,381.4 131.1,381.4 130.5,381.2 129.9,380.9 129.3,380.5 128.7,380.2 128.4,379.7 127.8,379.1 127.6,378.6 127.3,377.9 127.1,377.2 127,376.5 127,375.8 127,375.2 127.4,374.5 127.6,374 127.9,373.4 128.3,372.9 128.9,372.5 129.3,372 130,371.7 130.7,371.4 131.5,371.1 132.1,370.9 132.8,371.1 133.6,371.1 134.3,371.4 135,371.6 L 136,369.6 C 135.2,369 134.2,368.8 133.2,368.7 133.1,368.7 132.9,368.8 132.8,368.7 Z M 119.7,372.8 117.2,373.6 120.4,383 109.6,376.2 107.6,377 112.2,390.8 114.8,389.9 111.6,380.6 122.3,387.3 124.4,386.6 Z M 104,378.2 101.5,379.1 104.1,386.8 C 104.6,388.2 104.6,389.2 104.2,390.1 103.8,391 103.1,391.5 102,391.9 100.8,392.3 99.87,392.3 99.04,391.8 98.22,391.4 97.56,390.4 97.09,389.1 L 94.51,381.4 91.93,382.3 94.57,390.1 C 95.25,392.1 96.33,393.4 97.77,394.1 99.15,394.8 100.8,394.8 102.7,394.2 104.5,393.5 105.9,392.5 106.6,391.1 107.3,389.7 107.3,388 106.6,386 Z M 88.41,383.5 85.83,384.4 87.78,390.1 80.64,392.5 78.71,386.8 76.15,387.7 80.83,401.4 83.38,400.5 81.39,394.6 88.51,392.2 90.52,398.1 93.07,397.2 Z" />
</svg>
