<?xml version="1.0" encoding="UTF-8" standalone="no"?>
<svg
   version="1.1"
   width="660"
   height="440"
   viewBox="1 39 660 440"
   id="map"
   sodipodi:docname="map_slovakia.svg"
   inkscape:version="1.1.2 (0a00cf5339, 2022-02-04)"
   xmlns:inkscape="http://www.inkscape.org/namespaces/inkscape"
   xmlns:sodipodi="http://sodipodi.sourceforge.net/DTD/sodipodi-0.dtd"
   xmlns="http://www.w3.org/2000/svg"
   xmlns:svg="http://www.w3.org/2000/svg"
   xmlns:rdf="http://www.w3.org/1999/02/22-rdf-syntax-ns#"
   xmlns:cc="http://creativecommons.org/ns#"
   xmlns:dc="http://purl.org/dc/elements/1.1/">
  <defs
     id="defs4251" />
  <sodipodi:namedview
     id="namedview4249"
     pagecolor="#ffffff"
     bordercolor="#666666"
     borderopacity="1.0"
     inkscape:pageshadow="2"
     inkscape:pageopacity="0.0"
     inkscape:pagecheckerboard="0"
     showgrid="false"
     inkscape:zoom="43.52"
     inkscape:cx="68.6"
     inkscape:cy="266.5"
     inkscape:window-width="1862"
     inkscape:window-height="1016"
     inkscape:window-x="58"
     inkscape:window-y="1107"
     inkscape:window-maximized="1"
     inkscape:current-layer="map" />
  <title
     id="title2">Afterschool Geekeries map</title>
  <path
     id="slovakia"
     style="fill:#FAFF7F;stroke:#ffffff;stroke-width:1.36794;stroke-miterlimit:4;stroke-dasharray:none"
     d="M 189.7,236.6 C 187.3,236.7 185.3,237 183.7,237.4 182.4,237.4 182.4,240.2 181.2,240.6 179.5,241.4 176.9,235.4 175.6,241.4 175.6,242.3 178.2,242.3 177.8,243.2 176.5,245.3 174.3,247.9 171.8,247.9 168.4,247.9 166.2,243.2 162.8,242.7 161.1,242.3 160.3,244.9 158.6,245.3 156.9,245.3 155,243.6 153.3,244 147.3,245.3 142.2,258.6 141.8,259 140.1,259.9 138.4,256.5 136.7,256.9 134.5,257.3 130.7,260.8 130.7,258.6 130.7,257.8 133.3,249.6 130.3,248.3 128.6,247.5 126.4,249.6 124.3,249.2 123.5,248.7 125.2,247 124.7,246.2 124.3,245.7 122.6,247 122.2,246.6 120,244.5 120.1,240.4 117.5,238.7 113.2,235.7 107.7,257.8 100.9,252.2 99.58,250.9 101.7,247.9 100.4,246.6 99.16,245.3 96.17,247.5 95.32,246.2 88.07,249.6 77.84,255.2 74,262.1 74,262.5 70.59,275.8 70.59,275.8 69.31,277.5 66.33,276.6 65.05,278.4 64.19,279.6 65.47,281.8 64.62,283.1 51.82,299 37.76,277.9 31.79,303.3 32.22,308.8 25.82,314.8 28.38,319.1 32.22,325.6 36.48,331.1 41.6,336.7 42.45,336.3 43.73,335.9 45.43,336.3 53.11,337.2 59.07,348.3 67.18,350 72.3,350.9 108.5,344.5 106.8,341.4 105.1,338.9 99.15,332.9 104.7,329.4 110.7,325.1 123.9,328.1 128.6,323.4 130.3,321.7 128.1,317.8 129.4,315.7 132.8,309.7 140.5,319.1 143.9,318.7 154.6,317 144.8,314 151.6,309.7 153.3,308.8 156,310.5 157.7,310.1 162.4,308 160.7,296.4 163.3,293 169.7,284.8 179,292.5 186.3,291.2 190.5,290.8 193.1,284.8 197.4,284.8 208,285.2 201.6,293.4 209.7,296 211,296.8 212.7,294.7 214.4,294.2 217.8,293.4 221.6,293.5 223.9,290.9 224,290.9 224.1,290.6 224.2,290.5 224.1,290.5 224.1,290.5 223.9,290.5 223.9,287.1 221.1,283.4 222,280.4 222.4,277.4 226.2,276.5 227.5,273.5 228.8,270.9 228.3,267.9 228.8,264.9 229.2,260.8 232.5,255.1 232.4,250.9 231.7,250.6 230.9,250.6 230.1,250.3 226.2,249.9 225.1,249.6 221.2,248.3 218.3,247.5 215.3,247.5 212.7,245.7 211,244.9 211.4,241.9 210.2,240.6 206,237.4 196.7,236.2 189.7,236.6 Z" />
  <metadata
     id="metadata4333">
    <rdf:RDF>
      <cc:Work
         rdf:about="">
        <dc:title>Afterschool Geekeries map</dc:title>
      </cc:Work>
    </rdf:RDF>
  </metadata>
  <path
     id="path48222"
     style="font-weight:600;font-size:30px;line-height:1.25;font-family:Montserrat;-inkscape-font-specification:'Montserrat Semi-Bold';fill:#222222;fill-opacity:1;stroke:#ff88dc;stroke-width:0;stroke-miterlimit:4;stroke-dasharray:none;stroke-opacity:1"
     d="M 156.7,265.5 154.1,266.2 152.2,282.1 155,281 155.6,277.3 162.2,275.2 164.7,278.2 167.5,277.3 Z M 156.3,268.3 160.7,273.5 155.6,275 Z M 146.1,268.8 143.7,269.7 147.9,283.6 150.5,282.6 Z M 141.7,270.3 138.8,271.6 134,280.7 131.9,273.8 129.3,274.7 133.5,288.4 136.2,287.5 135,284.1 136.5,281.1 143.2,285 146.2,284.1 137.7,278.8 Z M 121.3,277.1 118.8,277.9 116.8,293.7 119.6,292.9 119.7,289.2 126.9,287.1 129.1,289.9 131.9,289 Z M 113.4,279.7 110.8,280.3 109.6,292.5 101.5,283.2 98.72,284.1 109.2,296.2 111.6,295.2 Z M 120.7,280.1 125.3,285.3 120.1,286.9 Z M 93.63,286.1 C 92.81,286.1 91.89,286.2 90.96,286.5 89.89,286.8 88.94,287.4 88.14,288.2 87.39,288.7 86.71,289.5 86.27,290.6 85.79,291.3 85.54,292.3 85.48,293.4 85.38,294.3 85.52,295.3 85.83,296.3 86.19,297.4 86.66,298.1 87.35,298.8 87.97,299.6 88.74,300.1 89.57,300.4 90.47,300.8 91.42,301 92.44,301.1 93.47,301.1 94.53,301.2 95.55,300.6 96.59,300.3 97.58,299.6 98.34,299 99.12,298.4 99.79,297.7 100.2,296.8 100.6,296 100.9,295.1 100.9,294.1 101.1,293.2 101,292.3 100.6,291.2 100.3,290.1 99.78,289.1 99.22,288.5 98.61,287.7 97.84,286.9 96.95,286.6 96.04,286.3 95.1,286.1 94.08,286.2 93.94,286.2 93.78,286.1 93.63,286.1 Z M 93.18,288.5 C 93.39,288.5 93.58,288.5 93.72,288.6 94.35,288.6 94.97,288.7 95.55,288.9 96.11,289.3 96.57,289.6 97.08,290 97.61,290.6 97.92,291 98.1,291.8 98.26,292.6 98.46,293.5 98.39,294.1 98.26,294.7 98.14,295.3 97.84,295.7 97.52,296.3 97.13,296.7 96.66,297.3 96.17,298 95.56,298.2 94.87,298.6 94.18,299 93.47,298.6 92.8,298.7 92.15,298.6 91.5,298.5 90.93,298.2 90.34,297.8 89.84,297.6 89.4,296.9 88.98,296.6 88.62,296 88.4,295.3 88.18,294.6 88.1,294 88.14,293.2 88.18,292.6 88.34,291.9 88.63,291.4 88.96,290.8 89.31,290.1 89.82,289.8 90.38,289.3 90.94,289 91.63,288.8 92.12,288.6 92.69,288.5 93.18,288.5 Z M 75.56,291.9 73.03,292.9 77.51,306.6 87.29,303.2 86.61,301.3 79.41,303.6 Z M 68.46,294.6 C 68.28,294.7 68.06,294.7 67.83,294.7 66.94,294.9 66.13,295 65.3,295.3 64.01,295.5 63,296 62.33,296.7 61.63,297.2 61.19,297.9 61,298.7 60.81,299.5 60.85,300.2 61.08,301 61.29,301.6 61.64,302.1 62.06,302.7 62.56,303 63.12,303.3 63.67,303.4 64.24,303.6 64.87,303.7 65.46,303.7 66.13,303.6 66.79,303.9 67.38,303.6 68.04,303.5 68.59,303.5 69.1,303.6 69.64,303.5 70.1,303.5 70.51,303.7 70.91,304 71.17,304.2 71.26,304.5 71.39,304.9 71.38,305.2 71.23,305.5 71.14,306 70.85,306.2 70.49,306.6 70.1,306.8 69.51,307.1 68.8,307.5 67.94,307.5 67.11,308 66.18,307.8 65.25,307.8 64.48,307.7 63.79,307.2 L 63.53,309.4 C 64.26,309.7 65.2,310.1 66.29,310.2 67.34,310.1 68.44,309.8 69.5,309.5 70.79,309.2 71.76,308.6 72.45,308.1 73.15,307.4 73.61,306.7 73.78,305.9 73.99,305.2 73.99,304.4 73.74,303.7 73.49,302.9 73.14,302.5 72.68,302.1 72.23,301.6 71.72,301.4 71.15,301.2 70.62,301.2 70,301 69.35,301.2 68.7,301 68.1,301.2 67.45,301.3 66.8,301.4 66.25,301.4 65.69,301.3 65.15,301.2 64.74,301.3 64.35,301.1 63.97,300.7 63.7,300.4 63.55,300 63.46,299.7 63.47,299.5 63.6,299.1 63.68,298.7 63.91,298.2 64.33,298.2 64.66,297.7 65.21,297.4 65.92,297.2 66.52,297.1 67.2,297.1 67.94,296.9 68.63,296.9 69.39,297.1 70.09,297.1 L 70.29,294.9 C 69.72,294.8 69.11,294.8 68.46,294.6 Z" />
</svg>
