<svg version="1.1" xmlns="http://www.w3.org/2000/svg" xmlns:xlink="http://www.w3.org/1999/xlink" width="59.95112" height="59.95112" viewBox="0,0,59.95112,59.95112"><g transform="translate(-210.02444,-150.02444)"><g data-paper-data="{&quot;isPaintingLayer&quot;:true}" fill-rule="nonzero" stroke="#e67ac6" stroke-linecap="butt" stroke-linejoin="miter" stroke-miterlimit="10" stroke-dasharray="" stroke-dashoffset="0" style="mix-blend-mode: normal"><path d="M213.02444,180c0,-14.89819 12.07736,-26.97556 26.97556,-26.97556c14.89819,0 26.97556,12.07736 26.97556,26.97556c0,14.89819 -12.07736,26.97556 -26.97556,26.97556c-14.89819,0 -26.97556,-12.07736 -26.97556,-26.97556z" fill="none" stroke-width="6"/><path d="M231.46196,188.73103c0,-5.98108 -0.15039,-15.37244 -0.15039,-18.19668c0,-1.62855 2.09896,-2.78031 3.48837,-1.95362c2.47589,1.47314 10.26894,6.22803 15.19692,9.16015c2.25196,1.33991 1.78302,3.48831 0.05557,4.52776c-2.62065,1.57691 -10.31135,6.2046 -14.93917,8.98928c-2.15896,1.2991 -3.65131,0.57398 -3.65131,-2.52688z" fill="#e67ac6" stroke-width="0.5"/></g></g></svg>