<svg version="1.1" xmlns="http://www.w3.org/2000/svg" xmlns:xlink="http://www.w3.org/1999/xlink" width="184.01576" height="247.98862" viewBox="0,0,184.01576,247.98862"><defs><linearGradient x1="239.67826" y1="55.62093" x2="239.67826" y2="303.60954" gradientUnits="userSpaceOnUse" id="color-1"><stop offset="0" stop-color="#848484"/><stop offset="1" stop-color="#3e3e3e"/></linearGradient><linearGradient x1="204.24112" y1="109.71874" x2="204.24112" y2="181.75884" gradientUnits="userSpaceOnUse" id="color-2"><stop offset="0" stop-color="#faff7f"/><stop offset="1" stop-color="#91a6ff"/></linearGradient><linearGradient x1="259.65658" y1="109.71874" x2="259.65658" y2="181.75884" gradientUnits="userSpaceOnUse" id="color-3"><stop offset="0" stop-color="#ff88dc"/><stop offset="1" stop-color="#faff7f"/></linearGradient></defs><g transform="translate(-147.67038,-55.62093)"><g data-paper-data="{&quot;isPaintingLayer&quot;:true}" fill-rule="nonzero" stroke="none" stroke-linecap="butt" stroke-linejoin="miter" stroke-miterlimit="10" stroke-dasharray="" stroke-dashoffset="0" style="mix-blend-mode: normal"><path d="M147.67038,147.62798c0,-50.81409 41.19296,-92.00705 92.00705,-92.00705c50.81409,0 92.31149,41.19387 92.00705,92.00705c-0.52438,87.52078 -91.48266,155.98157 -91.48266,155.98157c0,0 -92.53143,-72.13146 -92.53143,-155.98157z" fill="url(#color-1)" stroke-width="0"/><path d="M154.8014,147.03427c0,-46.04764 37.91592,-83.37663 84.68758,-83.37663c46.77166,0 84.68758,37.32899 84.68758,83.37663c0,46.04764 -37.91592,83.37663 -84.68758,83.37663c-46.77166,0 -84.68758,-37.32899 -84.68758,-83.37663z" fill="#313131" stroke-width="0"/><g stroke-width="1"><path d="M162.67952,169.70597l34.63467,-59.98724h13.85387l34.63467,59.98724l-6.92694,11.98359l-34.63467,-59.98724l-27.70773,48.00364h27.70773l-6.92694,-11.98359l6.92694,-11.98359l20.78079,35.95077h-55.41546z" fill="url(#color-2)"/><path d="M231.94885,121.70233l6.92694,-11.98359h69.26933l6.92694,11.98359h-69.26933l27.70773,48.00364l13.85387,-23.96718h-13.85387l-6.92694,-12.05287h41.5616l-27.70773,48.00364h-13.85387z" fill="url(#color-3)"/></g></g></g></svg>