<?xml version="1.0" encoding="UTF-8" standalone="no"?>
<!-- Created with Inkscape (http://www.inkscape.org/) -->

<svg
   width="217.4mm"
   height="26.29mm"
   viewBox="0 0 217.4 26.29"
   version="1.1"
   id="svg5"
   inkscape:version="1.1.2 (0a00cf5339, 2022-02-04)"
   sodipodi:docname="rebelatheart.svg"
   xmlns:inkscape="http://www.inkscape.org/namespaces/inkscape"
   xmlns:sodipodi="http://sodipodi.sourceforge.net/DTD/sodipodi-0.dtd"
   xmlns="http://www.w3.org/2000/svg"
   xmlns:svg="http://www.w3.org/2000/svg">
  <sodipodi:namedview
     id="namedview7"
     pagecolor="#ffffff"
     bordercolor="#666666"
     borderopacity="1.0"
     inkscape:pageshadow="2"
     inkscape:pageopacity="0.0"
     inkscape:pagecheckerboard="0"
     inkscape:document-units="mm"
     showgrid="false"
     fit-margin-top="0"
     fit-margin-left="0"
     fit-margin-right="0"
     fit-margin-bottom="0"
     inkscape:zoom="0.775"
     inkscape:cx="305.1"
     inkscape:cy="356.8"
     inkscape:window-width="1862"
     inkscape:window-height="1016"
     inkscape:window-x="58"
     inkscape:window-y="27"
     inkscape:window-maximized="1"
     inkscape:current-layer="layer1" />
  <defs
     id="defs2" />
  <g
     inkscape:label="Layer 1"
     inkscape:groupmode="layer"
     id="layer1"
     transform="translate(-24.28,-53.83)">
    <g
       aria-label="rebel@heart.me"
       id="text2894"
       style="font-size:31.75px;line-height:1.25;font-family:BLAGOVEST;-inkscape-font-specification:BLAGOVEST;fill:#d40000;stroke-width:0.2646">
      <path
         d="M 24.28,75.83 V 61.89 Q 27.52,60.78 30.82,60.78 31.83,60.78 32.75,60.88 33.68,60.94 34.79,61.19 L 34.31,63.51 Q 33.29,63.23 32.5,63.16 31.74,63.07 30.82,63.07 28.88,63.07 26.88,63.61 V 75.83 Z"
         style="font-family:'Ubuntu Mono';-inkscape-font-specification:'Ubuntu Mono'"
         id="path46958" />
      <path
         d="M 44.98,60.75 Q 47.96,60.75 49.58,62.62 51.2,64.46 51.2,68.24 V 69.16 H 40.66 Q 40.82,71.45 42.15,72.66 43.52,73.83 45.96,73.83 47.36,73.83 48.34,73.61 49.33,73.39 49.84,73.13 L 50.19,75.35 Q 49.71,75.61 48.47,75.89 47.23,76.18 45.68,76.18 43.77,76.18 42.31,75.61 40.88,75 39.93,73.99 38.98,72.97 38.5,71.58 38.02,70.15 38.02,68.5 38.02,66.53 38.63,65.07 39.23,63.61 40.22,62.65 41.2,61.7 42.44,61.23 43.68,60.75 44.98,60.75 Z M 48.53,67.04 Q 48.53,65.16 47.55,64.08 46.57,62.97 44.95,62.97 44.03,62.97 43.26,63.32 42.53,63.67 41.99,64.24 41.45,64.81 41.14,65.54 40.82,66.27 40.72,67.04 Z"
         style="font-family:'Ubuntu Mono';-inkscape-font-specification:'Ubuntu Mono'"
         id="path46960" />
      <path
         d="M 57.52,61.64 Q 58,61.35 58.88,61.07 59.81,60.75 60.92,60.75 62.41,60.75 63.58,61.32 64.76,61.89 65.55,62.91 66.38,63.92 66.79,65.35 67.23,66.75 67.23,68.46 67.23,70.24 66.73,71.67 66.22,73.1 65.3,74.12 64.38,75.1 63.08,75.64 61.77,76.18 60.19,76.18 58.44,76.18 57.07,75.93 55.71,75.67 54.88,75.42 V 54.27 L 57.52,53.83 Z M 57.52,73.54 Q 58.12,73.7 58.73,73.8 59.33,73.86 59.87,73.86 62.06,73.86 63.3,72.53 64.54,71.16 64.54,68.46 64.54,67.32 64.31,66.34 64.09,65.32 63.62,64.62 63.14,63.89 62.38,63.48 61.65,63.07 60.6,63.07 59.68,63.07 58.82,63.45 57.96,63.8 57.52,64.21 Z"
         style="font-family:'Ubuntu Mono';-inkscape-font-specification:'Ubuntu Mono'"
         id="path46962" />
      <path
         d="M 76.73,60.75 Q 79.71,60.75 81.33,62.62 82.95,64.46 82.95,68.24 V 69.16 H 72.41 Q 72.57,71.45 73.9,72.66 75.27,73.83 77.71,73.83 79.11,73.83 80.09,73.61 81.08,73.39 81.59,73.13 L 81.94,75.35 Q 81.46,75.61 80.22,75.89 78.98,76.18 77.43,76.18 75.52,76.18 74.06,75.61 72.63,75 71.68,73.99 70.73,72.97 70.25,71.58 69.77,70.15 69.77,68.5 69.77,66.53 70.38,65.07 70.98,63.61 71.97,62.65 72.95,61.7 74.19,61.23 75.43,60.75 76.73,60.75 Z M 80.28,67.04 Q 80.28,65.16 79.3,64.08 78.32,62.97 76.7,62.97 75.78,62.97 75.01,63.32 74.28,63.67 73.74,64.24 73.2,64.81 72.89,65.54 72.57,66.27 72.47,67.04 Z"
         style="font-family:'Ubuntu Mono';-inkscape-font-specification:'Ubuntu Mono'"
         id="path46964" />
      <path
         d="M 95.11,76.18 Q 93.71,76.18 92.79,75.8 91.87,75.42 91.33,74.66 90.79,73.89 90.57,72.78 90.35,71.64 90.35,70.15 V 56.21 H 86.09 V 53.99 H 92.95 V 70.15 Q 92.95,71.26 93.08,71.96 93.24,72.66 93.52,73.1 93.84,73.51 94.29,73.67 94.73,73.83 95.33,73.83 96.25,73.83 97.05,73.61 97.84,73.39 98.29,73.13 L 98.67,75.35 Q 98.48,75.45 98.13,75.61 97.78,75.73 97.3,75.86 96.83,75.99 96.25,76.08 95.71,76.18 95.11,76.18 Z"
         style="font-family:'Ubuntu Mono';-inkscape-font-specification:'Ubuntu Mono'"
         id="path46966" />
      <path
         d="M 115.1,73.83 Q 114.2,74.21 113.2,74.37 112.2,74.5 111.4,74.5 110.3,74.5 109.3,74.15 108.4,73.77 107.6,73 106.9,72.24 106.5,71.07 106.1,69.86 106.1,68.21 106.1,65.26 107.7,63.73 109.2,62.18 111.6,62.18 111.9,62.18 112.1,62.21 112.4,62.21 112.6,62.24 112.6,60.24 111.8,59.07 111,57.89 109.1,57.89 108,57.89 107.1,58.43 106.2,58.97 105.5,60.18 104.9,61.35 104.5,63.23 104.1,65.1 104.1,67.77 104.1,69.77 104.5,71.64 104.9,73.48 105.7,74.88 106.5,76.27 107.7,77.1 109,77.96 110.7,77.96 112,77.96 113.4,77.54 L 113.6,79.67 Q 111.9,80.12 110.5,80.12 108.2,80.12 106.5,79.07 104.8,78.05 103.7,76.37 102.6,74.69 102.1,72.53 101.5,70.37 101.5,68.11 101.5,64.84 102.1,62.5 102.7,60.15 103.7,58.65 104.8,57.16 106.1,56.46 107.5,55.73 109.1,55.73 111.9,55.73 113.5,57.64 115.1,59.51 115.1,62.88 Z M 108.7,68.21 Q 108.7,68.85 108.7,69.58 108.8,70.31 109.1,70.94 109.4,71.54 109.9,71.99 110.4,72.4 111.4,72.4 111.6,72.4 111.9,72.37 112.3,72.34 112.6,72.24 V 64.46 Q 112.3,64.37 112,64.34 111.8,64.3 111.5,64.3 110.2,64.3 109.4,65.38 108.7,66.43 108.7,68.21 Z"
         style="font-family:'Ubuntu Mono';-inkscape-font-specification:'Ubuntu Mono'"
         id="path46968" />
      <path
         d="M 118.4,75.83 V 54.27 L 121,53.83 V 61.32 Q 121.7,61.07 122.4,60.94 123.2,60.78 124,60.78 125.7,60.78 126.8,61.29 127.9,61.76 128.6,62.65 129.3,63.54 129.6,64.78 129.8,66.02 129.8,67.51 V 75.83 H 127.2 V 68.08 Q 127.2,65.35 126.5,64.24 125.7,63.1 123.7,63.1 122.9,63.1 122.1,63.29 121.4,63.45 121,63.61 V 75.83 Z"
         style="font-family:'Ubuntu Mono';-inkscape-font-specification:'Ubuntu Mono'"
         id="path46970" />
      <path
         d="M 140.2,60.75 Q 143.2,60.75 144.8,62.62 146.5,64.46 146.5,68.24 V 69.16 H 135.9 Q 136.1,71.45 137.4,72.66 138.8,73.83 141.2,73.83 142.6,73.83 143.6,73.61 144.6,73.39 145.1,73.13 L 145.4,75.35 Q 145,75.61 143.7,75.89 142.5,76.18 140.9,76.18 139,76.18 137.6,75.61 136.1,75 135.2,73.99 134.2,72.97 133.8,71.58 133.3,70.15 133.3,68.5 133.3,66.53 133.9,65.07 134.5,63.61 135.5,62.65 136.4,61.7 137.7,61.23 138.9,60.75 140.2,60.75 Z M 143.8,67.04 Q 143.8,65.16 142.8,64.08 141.8,62.97 140.2,62.97 139.3,62.97 138.5,63.32 137.8,63.67 137.2,64.24 136.7,64.81 136.4,65.54 136.1,66.27 136,67.04 Z"
         style="font-family:'Ubuntu Mono';-inkscape-font-specification:'Ubuntu Mono'"
         id="path46972" />
      <path
         d="M 156,73.96 Q 157,73.96 157.7,73.89 158.5,73.83 159,73.73 V 69.35 Q 158.5,69.19 157.8,69.1 157.1,69 156.3,69 155.6,69 154.9,69.13 154.2,69.23 153.6,69.51 153.1,69.8 152.7,70.27 152.4,70.72 152.4,71.42 152.4,72.85 153.3,73.42 154.3,73.96 156,73.96 Z M 155.7,60.75 Q 157.4,60.75 158.5,61.16 159.6,61.57 160.3,62.3 161,63.03 161.3,64.08 161.6,65.13 161.6,66.37 V 75.58 Q 160.7,75.73 159.2,75.96 157.7,76.18 156.1,76.18 154.9,76.18 153.7,75.96 152.6,75.77 151.7,75.26 150.8,74.72 150.3,73.8 149.7,72.88 149.7,71.45 149.7,70.18 150.3,69.32 150.8,68.43 151.7,67.89 152.6,67.35 153.7,67.13 154.8,66.88 156,66.88 157.5,66.88 159,67.23 V 66.5 Q 159,65.83 158.9,65.23 158.7,64.59 158.3,64.08 157.9,63.57 157.2,63.29 156.6,62.97 155.5,62.97 154.1,62.97 153.1,63.16 152.1,63.35 151.6,63.54 L 151.2,61.38 Q 151.8,61.13 153,60.94 154.3,60.75 155.7,60.75 Z"
         style="font-family:'Ubuntu Mono';-inkscape-font-specification:'Ubuntu Mono'"
         id="path46974" />
      <path
         d="M 167.2,75.83 V 61.89 Q 170.4,60.78 173.7,60.78 174.7,60.78 175.6,60.88 176.5,60.94 177.7,61.19 L 177.2,63.51 Q 176.2,63.23 175.4,63.16 174.6,63.07 173.7,63.07 171.8,63.07 169.8,63.61 V 75.83 Z"
         style="font-family:'Ubuntu Mono';-inkscape-font-specification:'Ubuntu Mono'"
         id="path46976" />
      <path
         d="M 187.3,61.1 H 193.6 V 63.29 H 187.3 V 70.15 Q 187.3,71.26 187.5,71.96 187.7,72.66 188,73.1 188.4,73.51 189,73.67 189.5,73.83 190.4,73.83 191.5,73.83 192.2,73.64 192.9,73.45 193.5,73.13 L 193.9,75.35 Q 193.5,75.54 192.5,75.86 191.5,76.18 190.1,76.18 188.5,76.18 187.4,75.8 186.4,75.42 185.8,74.66 185.2,73.89 185,72.78 184.7,71.64 184.7,70.15 V 63.29 H 181.6 V 61.1 H 184.7 V 56.97 L 187.3,56.53 Z"
         style="font-family:'Ubuntu Mono';-inkscape-font-specification:'Ubuntu Mono'"
         id="path46978" />
      <path
         d="M 205.8,73.8 Q 205.8,74.75 205.2,75.48 204.5,76.21 203.5,76.21 202.4,76.21 201.8,75.48 201.1,74.75 201.1,73.8 201.1,72.81 201.8,72.08 202.4,71.35 203.5,71.35 204.5,71.35 205.2,72.08 205.8,72.81 205.8,73.8 Z"
         style="font-family:'Ubuntu Mono';-inkscape-font-specification:'Ubuntu Mono'"
         id="path46980" />
      <path
         d="M 212.7,61.51 Q 214.6,60.78 216.3,60.78 217.2,60.78 218,61.07 218.8,61.32 219.4,61.89 220.7,60.78 222.3,60.78 223.1,60.78 223.7,61.07 224.4,61.35 224.9,61.92 225.5,62.5 225.8,63.35 226.1,64.21 226.1,65.35 V 75.83 H 223.7 V 65.29 Q 223.7,64.15 223.2,63.54 222.7,62.94 222,62.94 221.6,62.94 221.2,63.13 220.7,63.32 220.4,63.73 220.6,64.46 220.6,65.35 V 70.15 H 218.2 V 65.32 Q 218.2,64.21 217.9,63.57 217.5,62.94 216.5,62.94 215.9,62.94 215.1,63.23 V 75.83 H 212.7 Z"
         style="font-family:'Ubuntu Mono';-inkscape-font-specification:'Ubuntu Mono'"
         id="path46982" />
      <path
         d="M 235.5,60.75 Q 238.5,60.75 240.1,62.62 241.7,64.46 241.7,68.24 V 69.16 H 231.2 Q 231.3,71.45 232.7,72.66 234,73.83 236.5,73.83 237.9,73.83 238.8,73.61 239.8,73.39 240.3,73.13 L 240.7,75.35 Q 240.2,75.61 239,75.89 237.7,76.18 236.2,76.18 234.3,76.18 232.8,75.61 231.4,75 230.4,73.99 229.5,72.97 229,71.58 228.5,70.15 228.5,68.5 228.5,66.53 229.1,65.07 229.7,63.61 230.7,62.65 231.7,61.7 232.9,61.23 234.2,60.75 235.5,60.75 Z M 239,67.04 Q 239,65.16 238,64.08 237.1,62.97 235.4,62.97 234.5,62.97 233.8,63.32 233,63.67 232.5,64.24 232,64.81 231.6,65.54 231.3,66.27 231.2,67.04 Z"
         style="font-family:'Ubuntu Mono';-inkscape-font-specification:'Ubuntu Mono'"
         id="path46984" />
    </g>
  </g>
</svg>
